<?xml version='1.0' encoding='utf-8'?>
<svg xmlns="http://www.w3.org/2000/svg" version="1.1" id="Layer_1" x="0px" y="0px" viewBox="0 0 2650.749 1087.251" enable-background="new 0 0 2650.749 1087.251"> <g> <path d="M859.771,206.951c2.434,0.306,1.681,5.045,3.601,2.774c2.363-2.795,8.256,0.958,8.17-5.225 c-0.225-16.303-2.07-17.878-2.621-48.032c-0.57-31.19,2.017-50.49-5.985-78.56c-0.632-2.218-1.636-4.728,0.781-5.828 c2.066-0.941,4.005,0.992,5.351,2.749c8.387,10.941,6.599,13.975,11.503,11.278c0.266,0.784,0.532,1.569,0.799,2.353 c-0.206-9.057,1.984-17.87,2.232-26.854c0.102-3.687-0.468-9.421,4.058-9.908c4.777-0.514,6.185,4.567,6.462,8.956 c0.129,2.036,2.139,3.474,1.198,5.689c6.747-0.847,5.335-6.551,6.583-10.281c1.241-3.71,1.842-9.298,5.357-9.506 c6.181-0.365,6.747,11.07,6.761,17.252c0.005,2.044,0.716,3.698,1.98,5.2c1.235-1.756,3.883-1.313,4.967-3.761 c1.483-3.349,3.438-6.496,4.349-10.094c3.145-12.429,12.537-7.585,12.543-0.001c0.003,4.173,2.946,4.026,5.367,3.911 c6.191-0.294,12.838,4.08,13.121,10.164c0.206,4.434,3.202,4.634,5.776,5.824c1.597,0.738,3.802-0.948,5.094,1.695 c2.89,5.912,10.188,9.643,10.2,16.61c0.007,4.081,3.251,3.99,3.818,3.786c5.314-1.905,7.567,1.238,9.551,5.134 c1.852,3.637,6.184,6.508,6.78,9.793c2.639,14.544,20.793,14.735,18.28,35.158c-1.201,9.757,13.11,5.731,8.99,26.813 c-2.928,14.984,12.762,16.409-1.575,28.987c-3.365,2.953-2.856,7.298,1.683,8.794c6.503,2.144,8.641,5.622,6.742,12.337 c-1.935,6.841,11.337,16.974,2.713,24.265c-0.325,0.275-0.361,1.212-0.183,1.717c5.807,16.469,2.145,34.338,7.512,50.885 c0.642,1.98-0.382,3.115-2.678,4.194c-7.785,3.659,0.02,8.94-0.243,11.014c-1.041,8.212,2.116,15.403,5.155,22.661 c0.782,1.868-1.652,2.556-1.889,3.758c-0.548,2.776-1.252,6.036-0.314,8.498c3.494,9.169-0.876,18.399,0.727,27.592 c0.434,2.492-10.005,23.609-29.554,32.279c-1.48,0.657-4.255,0.379-2.601,2.989c1.738,2.742,2.253,8.384,6.018,7.417 c7.696-1.977,8.88,3.565,10.382,7.887c4.07,11.706,12.317,2.776,16.095,18.47c2.355,9.782,22.073,24.187,32.073,13.88 c1.843-1.899,1.967-0.462,8.566,8.875c-4.35,0.485-0.508,6.894-5.38,7.38c-1.089,0.109-3.515,1.799-0.253,4.187 c2.448,1.793-0.447,3.174-2.47,3.52c-11.484,1.962-8.973,11.166-14.077,5.923c-9.753-10.018-15.79-3.698-16.112-10.362 c-0.055-1.144-3.386-2.31-4.483-1.179c-1.237,1.275-2.699,3.294-0.883,5.836c2.762,3.865,10.897,11.433,6.467,15.801 c-1.553,1.532-3.181,1.831-4.711,0.707c-6.941-5.098-15.347-2.546-22.958-4.144c-4.739-0.995-4.45,4.63-2.786,8.463 c-6.103,1.114-11.25-2.628-17.521-2.272c5.688,15.456,23.843,1.168,35.853,39.707c3.787,12.15,9.792,23.233,14.033,35.071 c3.487,9.734,9.631,17.964,14.13,27.117c8.14,16.564,30.292-1.449,42.291,14.41c1.638,2.165,1.647,3.81,0.315,5.938 c-3.546-3.805-20.436-6.944-21.746-2.118c-0.352,1.296,0.901,1.815,1.743,2.492c3.346,2.692,7.635,1.602,11.363,2.852 c4.701,1.577,8.549,5.393,14.048,4.877c-0.491,2.5-0.904,4.605-1.392,7.093c-1.849-0.256-2.826-2.366-4.865-2.333 c-10.694,0.174,3.859,7.866,5.196,24.437c0.112,1.382,2.658,0.923,2.355,2.96c-3.139,3.306-6.087-4.811-8.734-0.59 c-1.157,1.845-3.23,4.229-0.054,6.153c4.345,2.631-2.302,4.419-0.4,7.424c1.147,1.813,0.049,5.047-0.04,7.642 c-2.875-1.916-7.372-3.268-8.276-5.869c0,0-30.335-42.805-38.733-62.41c-9.925-23.17-22.428-45.13-31.636-68.572 c-5.843-14.876-17.877-21.931-31.361-27.725c-27.269-11.718-17.445-10.38-45.865-13.261c-5.058-0.513-10.143-1.019-14.614-3.209 c-7.43-3.64-15.624-2.088-23.403-4.532c-13.716-4.31-62.793-27.776-113.879-8.293c-25.917,9.884-27.164,13.87-55.044,13.108 c-4.586-0.125-9.749-8.367-10.212-15.039c-1.156-16.682-10.766-26.134-26.983-30.554c-33.676-9.18-42.725-18.461-74.579-11.299 c-37.485,8.428-37.954,7.229-39.01,4.474c-1-2.609,1.452-3.601,3.122-4.237c74.15-28.251,58.789-12.246,79.034-29.564 c4.075-3.486,8.313-4.791,13.389-5.473c4.395-0.59,8.545-2.83,12.931-3.692c17.933-3.523,36.772,13.6,41.696,16.079 c33.045,16.637,65.496-14.557,79.236-23.43c1.251-0.808,2.256-2.793,3.858-1.927c1.948,1.054-1.464,1.471-0.707,2.729 c1.097,1.822,2.832,1.188,4.054,0.703c9.047-3.59,22.654-2.507,24.916-13.072c21.659-101.164,33.586-103.123,13.821-138.598 C856.12,239.453,854.182,223.236,859.771,206.951z M771.692,453.831c8.698,3.498,12.772-6.221,19.972-8.5 c5.146-1.629,8.804-7.769,13.628-11.411c12.309-9.293,3.828-19.852,14.642-22.76c1.735-0.467,1.24-2.506,0.316-3.898 c-1.146-1.727-2.347-0.553-3.304,0.14c-15.47,11.202-32.577,29.22-57.738,28.047C749.933,435.016,755.267,454.507,771.692,453.831z "/> <path d="M2594.082,1023.225c-3.311-0.321-4.409-3.077-6.544-4.493c-1.109-0.735-0.699-3.682-3.084-2.352 c-1.59,0.887-0.599,2.9-1.045,4.028c-3.016,7.627,2.135,13.331,4.384,20.299c-5.461-3.247-10.781-5.846-12.048-12.475 c-0.123-0.642-0.315-1.673-0.709-1.801c-9.051-2.947-6.901-11.861-9.68-18.111c-14.327-32.223-7.909-8.587-21.255-42.722 c-4.492-11.49-9.235-22.793-14.87-33.845c-3.921-7.691-12.964-43.893-37.743-56.383c-5.294-2.669-10.717-7.344-15.825-9.226 c-8.992-3.313-15.643-10.215-25.743-12.309c-20.03-4.152-37.237-14.396-50.818-30.94c-17.288-21.061-50.944-4.278-77.849,2.234 c-32.022,7.75-59.27-3.843-57.519-20.298c0.28-2.627,0.323-5.345-0.022-7.956c-0.499-3.771,1.717-7.872-1.438-11.329 c-12.328-13.514-12.437-8.604-47.34-16.95c-21.672-5.182-57.931,11.891-65.47,4.682c15.284-9.601,24.04-11.185,64.703-23.649 c0.815-0.25,2.004-0.573,2.256-1.179c7.134-17.184,35.537-15.803,38.084-16.132c20.361-2.629,42.954,29.281,44.92,31.445 c3.184,3.505,8.865,2.085,11.887,6.697c1.394,2.128,4.306,0.969,4.137-2.897c-0.098-2.234-1.524-5.78,3.019-6.096 c0.389-0.027,1.102-1.497,0.959-2.14c-2.018-9.07-0.732-18.821-5.7-27.287c-12.662-21.574,2.656-10.94-32.915-55.238 c-5.504-6.854-10.192-14.331-17.065-20.043c-5.879-4.886-10.319-11.327-17.259-15.134c-13.423-7.364-23.276-34.532-22.65-49.898 c0.264-6.485-11.176-18.543-10.646-25.784c0.782-10.67-35.709-9.089-33.769-19.128c1.287-6.662,12.737,0.136,13.627-2.324 c2.05-5.67-7.235-4.986-4.264-9.521c1.844-2.815,5.7-2.188,7.89-0.984c13.675,7.516,7.261-8.417,23.936,4.999 c2.487,2.001,4.094,2.841,7.433,1.176c6.108-3.047,9.032,3.28,13.209,5.794c0.804,0.484,1.27,2.769,1.547,2.706 c8.143-1.85,12.897,7.657,20.635,6.258c12.212-2.209,15.457,9.924,27.299,10.605c3.632,0.209,5.657,3.933,8.979,5.541 c5.854,2.834,13.569,1.647,17.815,8.122c0.961,1.465,3.511,1.243,5.005,0.517c1.759-0.855,0.554-2.504,0.216-4.009 c-8.408-37.398-6.708-23.286,3.951-72.518c1.874-8.657,6.952-16.782,9.885-25.435c0.418-1.234,1.413-2.518,1.261-3.663 c-1.479-11.168,7.269-17.887,11.352-26.624c22.6-48.359,57.9-93.866,73.98-122.795c1.053-1.895,1.819-5.722,5.358-4.856 c3.986,0.975,2.402,4.626,2.586,7.255c1.05,15.022,9.038,4.799,6.811,20.376c-0.265,1.854-1.02,4.374,0.684,5.678 c2.239,1.715,3.257-0.97,4.781-2.051c5.761-4.086,8.978,5.706,8.42,7.186c-4.612,12.243,9.729,23.013,7.097,31.831 c-4.204,14.085,7.475,26.901,1.047,35.659c-2.118,2.886-1.17,5.306,2.187,6.5c3.065,1.091,3.381,3.321,3.655,6.216 c0.743,7.85,1.776,15.564-3.66,22.437c-1.038,1.312-1.046,3.78,0.196,5.024c4.163,4.17,3.149,9.331,3.406,14.341 c0.807,15.77-16.344,8.293-11.091,22.916c2.576,7.168-0.209,17.306-10.122,19.941c-5.418,1.44-8.525,3.749-7.364,10.671 c0.766,4.565-1.424,9.741-2.776,14.506c-2.622,9.241-16.824,1.333-15.52,16.59c1.121,13.122-0.839,22.43,1.444,24.862 c8.118,8.653,9.437,20.365,13.665,30.772c0.928,2.285,1.416,4.481,0.617,7.041c-1.999,6.412,0.638,12.613,2.151,18.553 c1.241,4.869,6.917,7.34,10.082,11.57c13.903,18.587,13.37,18.443,12.665,21.521c-2.094,9.134,7.448,21.064,16.811,21.647 c2.655,0.165,5.533-0.395,5.155,3.802c-0.452,5.014,15.412,3.537,16.412,0.123c1.497-5.109,6.987-4.776,9.471-8.443 c1.4-2.066,3.854,0.228,4.97,1.487c1.393,1.571,4.796,2.355,3.254,5.65c-2.109,4.506-0.738,6.047,4.077,5.105 c10.175-1.99,10.5,7.152,11.565,7.987c6.018,4.72,5.993,5.748,0.058,10.682c-1.189,0.988-3.98,0.224-3.462,3.44 c0.949,5.895,10.238,2.604,10.894,9.377c0.417,4.303-2.889,5.958-5.986,7.698c1.065,3.676,15.066,6.933-1.973,23.833 c-12.053,11.955-30.529,9.83-33.922,22.952c-1.406,5.438-4.539,9.123-8.653,12.237c-3.538,2.678-4.403,7.277-7.845,10.013 c-1.428,1.135-1.736,2.811,0.139,4.425c3.767,3.242,3.694,10.655,10.993,10.084c0.544,8.019,11.117,7.099,12.671,14.215 c0.225,1.028,1.03,1.184,1.878,1.526c8.828,3.551,15.219,10.854,22.133,16.688c11.137,9.398,6.433,19.404,19.852,47.801 c1.327,2.809,15.823,38.957,27.85,43.635c2.712,1.055,3.401,6.059,6.728,8.146c3.749,2.352,8.333,2.136,12.037,5.527 c2.806,2.569,5.167,5.704,8.276,8.008c5.979,4.43-0.441,8.476-4.542,4.67c-3.898-3.618-8.788-5.704-12.897-8.912 c-1.955-1.527-4.331-2.503-5.783-1.14c-1.544,1.449-0.409,3.666,0.446,6.054c2.572,7.179,8.302,10.991,13.691,15.103 c2.049,1.564,1.625,3.344,1.722,4.68c0.136,1.871-1.88,0.645-3.042,0.74c-2.568,0.21-5.213,7.826-3.436,11.377 C2591.252,1013.823,2590.446,1019.269,2594.082,1023.225z M2462.238,825.38c-4.668,0.828-9.18,0.104-10.613,4.413 c-1.174,3.53-0.494,7.98,2.97,9.888c7.599,4.187,12.488,12,20.907,14.99c3.215,1.142,7.027,2.08,9.205,4.394 c6.922,7.354,17.187,8.869,24.693,15.022c1.536,1.259,6.358,0.987,7.43,0.075c1.357-1.155-0.592-3.136-1.12-4.756 c-0.901-2.762-2.197-5.236-4.79-6.796c-6.584-3.96-10.205-10.994-16.84-15.405c-4.248-2.824-8.905-7.124-12.801-11.486 C2476.162,829.99,2468.324,828.213,2462.238,825.38z M2515.598,876.747c1.453,5.847,7.14,9.625,8.138,15.454 c2.707,15.807,21.779,55.003,30.169,72.851c1.264,2.69,3.732,4.863,5.837,7.092c2.32,2.457,9.407,0.647,5.359-4.169 c-1.848-2.199-20.526-43.396-21.876-46.583c-6.186-14.611-13.331-28.496-21.726-41.848 C2520.166,877.424,2518.689,875.406,2515.598,876.747z"/> <path d="M1635.699,404.669c-3.079,0.859-3.903,5.752-7.903,2.669c-3.472-2.676-5.458-0.308-6.657,2.285 c-1.351,2.923-0.69,5.51,3.339,5.813c0.602,0.045,1.168,0.564,1.391,2.162c-25.176,4.367-23.693,3.035-23.537,5.417 c0.1,1.523-1.189,3.846,1.75,4.068c1.101,0.083,1.971-0.034,2.891,0.949c8.605,9.205,24.372,17.422,36.06,21.042 c10.437,3.233,31.648,19.408,43.891,15.605c8.37-2.599,3.294-4.916,15.392-14.901c2.219-1.832,4.214-3.03,7.036-2.627 c2.09,0.299,4.851-1.099,6.123,1.269c1.869,3.477-3.637,0.676-3.398,3.562c0.097,1.175-2.898,3.255-2.071,3.431 c4.362,0.931,5.495,7.488,10.582,6.197c3.738-0.949,7.839-0.601,11.217-2.953c3.861-2.687,6.989-1.423,10.343,2.055 c-11.137,6.09-17.427,4.17-26.811,8.4c1.308,1.368,1.514,3.683,3.923,4.124c20.17,3.693,29.227,14.586,33.23,16.36 c2.655,1.177,0.336,3.255-1.671,3.985c-8.204,2.983-7.051,1.444-64.354,1.427c-13.357-0.004-20.102-8.155-30.629-10.51 c-9.584-2.144-16.477-9.63-26.326-11.541c-4.99-0.968-9.359-5.99-14.559-8.228c-6.174-2.658-42.758-20.437-48.173-9.645 c-3.683,7.339-20.724,14.753-31.72,10.918c-4.609-1.607-6.707,2.069-9.007,5.19c-0.858,1.163-0.206,1.765,0.344,2.071 c9.375,5.22,5.208,14.465,4.083,20.809c-0.895,5.047,2.849,10.589-1.357,14.92c-6.505,6.698-5.719,17.646-13.794,23.388 c-0.515,0.366-1.289,0.939-1.275,1.397c0.288,9.697-8.207,12.124-13.701,17.241c-3.961,3.688-6.917,8.429-12.389,10.268 c-0.096,8.974-8.143,11.099-13.199,15.999c-3.025,2.93-2.45,9.35-6.982,11.306c-6.727,2.904-8.495,11.016-16.117,13.458 c-3.442,1.103-5.865,7.35-7.498,11.73c-3.504,9.399-11.92,13.081-19.209,18.242c-8.97,6.352-21.234,9.772-21.234,9.772 c-0.888,10.947-12.142,4.397-22.059,13.531c-5.657,5.211-12.123,7.91-19.584,5.345c-3.011-1.035-5.242-0.544-3.619,1.961 c4.516,6.97-1.385,10.558-4.699,13.182c-5.173,4.095-10.636,9.621-19.129,5.494c-6.233-3.029-19.422,12.223-33.845,8.288 c-2.869-0.783-6.4,0.237-9.732,1.799c-10.014,4.692-20.461,6.416-31.901,6.113c-11.139-0.294-22.265,2.924-33.609-0.401 c-5.161-1.513-10.481,1.597-15.238,3.398c-3.965,1.501-8.131,0.902-12.988,4.312c3.163-7.899-0.968-8.26-4.988-7.246 c-6.897,1.738-14.285,0.978-20.829,4.567c-0.467-1.594,0.825-2.006,1.196-2.852c1.145-2.614,7.139-2.847,5.125-5.496 c-4.11-5.406-12.411-2.107-21.396-2.388c-0.088-2.82,2.777-2.232,3.518-3.745c1.229-2.507,2.091-6.281-1.491-6.164 c-7.098,0.23-14.358-2.049-21.309,0.79c-1.617,0.66-4.361,2.01-4.214-0.015c0.239-3.288-4.704-3.768-3.038-6.559 c1.544-2.587,4.282-1.351,6.993-0.388c1.226-7.52-7.725-12.711-4.725-21.095c5.357,5.537,9.322,11.927,16.445,14.81 c25.442,10.296,39.237-8.399,50.72-10.901c1.776-0.387,80.893-61.004,70.513-67.05c-3.534-2.059-7.29,6.077-13.078,6.166 c-1.759-1.256,0.13-3.107,0.244-3.168c11.979-6.367,19.56-18.18,31.12-25.054c5.911-3.515,9.217-9.751,14.255-14.254 c22.925-20.488,26.842-23.212,35.049-42.559c1.635-3.854,5.27-6.742,5.558-11.612c-11.204,0.69-7.795-8.511-23.043-16.639 c-2.824-1.505-7.578,0.542-11.456,1.095c-19.86,2.83-14.145-19.259-32.808-31.887c-10.364-7.013-44.864-12.713-52.775-15.824 c-24.058-9.459-74.525,14.666-77.422,7.106c-2.621-6.839,37.201-17.538,48.684-23.018c18.151-8.66,8.08,3.873,27.715-11.536 c19.833-15.564,47.263-20.463,65.802-3.106c7.252,6.79,34.798,11.519,60.145-5.529c21.102-14.193,8.911-16.917,40.198-34.931 c12.576-7.241,25.928-9.695,38.89-7.458c19.316,3.335,83.766,1.215,141.613,30.474c10.861,5.493,22.602,7.218,33.961,10.379 c7.681,2.137,16.124,1.572,24.232,2.115C1629.69,402.033,1632.712,401.825,1635.699,404.669z M1350.882,407.413 c-0.584-0.908,0.725-5.121-3.566-2.739c-10.995,6.103-22.279,10.835-35.217,11.033c-3.408,0.052-6.15,2.648-2.281,6.612 c3.792,3.885,8.389,6.642,12.772,9.709c1.853,1.297,3.863,1.386,5.327-0.413C1338.77,418.286,1352.304,415.632,1350.882,407.413z M1606.621,444.581c-1.226-0.211-3.005-0.192-3.6,1.511c-0.849,2.428,1.661,2.747,2.954,3.612 c6.235,4.171,71.147,36.093,73.862,30.136c2.413-5.294-4.756-0.818-65.403-32.959 C1612.12,445.655,1609.838,444.16,1606.621,444.581z"/> <path d="M2127.499,550.108c-7.926-2.786-13.002-2.906-15.965,5.222c-1.047,2.874-5.956,6.24-10.565,4.324 c-3.034-1.261-2.459,0.401-3.884,2.059c-4.602,5.357-0.247,6.334,2.648,9.384c19.27,20.304,23.803,34.335,36.152,46.188 c13.676,13.127,16.273,24.819,33.719,35.125c7.009,4.14,24.94-11.852,31.622-1.158c1.95,3.121-2.057,2.916-2.73,3.301 c-3.565,2.036,1.943,6.959-4.455,8.324c7.546,1.026,12.495,5.4,19.131,5.058c2.378-0.122,5.295,2.759,4.923,5.218 c-0.423,2.786-3.68,1.253-5.655,1.12c-16.335-1.093-19.907-7.591-23.088-4.447c-1.823,1.802-0.018,3.424,0.853,4.444 c12.299,14.395,4.929,0.981,21.734,20.763c7.927,9.33,12.081,10.385,9.702,11.221c-3.655,1.286-7.935,5.598-11.141,2.286 c-8.917-9.211-20.835-12.601-31.846-17.336c-63.391-27.259-66.833-101.672-149.893-107.759 c-42.785-3.135-34.883-7.069-64.171-15.385c-3.189-0.906-6.088,0.476-7.237,3.065c-1.246,2.809-4.865,5.3-1.807,9.422 c6.849,9.234,1.046,16.248-9.504,40.041c-3.991,9.002-7.464,4.968-7.807,10.497c-0.499,8.045-3.975,14.616-10.632,19.281 c-1.213,0.85-2.103,1.68-1.932,3.091c0.934,7.734-4.251,13.063-7.638,18.997c-1.804,3.161-6.202,2.77-9.242,3.777 c-4.574,1.515-0.195,1.823-4.27,9.945c-4.074,8.119-8.495,8.713-14.216,1.872c-1.632-1.951-2.761-5.167-5.885-3.908 c-2.752,1.109-1.509,4.259-1.726,6.588c-0.566,6.073-0.88,12.201-6.625,16.229c-2.336,1.638-3.723,2.97-6.37-0.272 c-2.955-3.62-6.831-4.971-8.846,1.638c-0.873,2.862-2.307,6.309-6.213,5.613c-6.343-1.131-3.998-14.914-6.605-19.435 c-0.944-1.637,1.778-5.136-1.941-5.112c-3.276,0.021-6.597,1.904-7.241,5.359c-0.795,4.26-3.555,7.462-4.853,11.322 c-1.118,3.325-3.378,2.917-5.717,2.712c-3.478-0.305-2.882-3.324-2.882-14.211c-2.284,2.628-5.984,1.858-6.459,5.86 c-0.081,0.684-2.097,2.126-3.913,1.749c-6.678-1.384-3.939-80.09-4.001-86.903c-0.167-18.547,5.9-47.843,3.245-48.843 c-4.129-1.554-6.71-6.2-11.237-6.198c-26.92,0.014-46.237-15.048-73.1-6.38c-6.611,2.133-14.486,1.83-21.119,4.129 c-6.4,2.219-12.293,1.87-19.512,1.838c8.709-13.506,39.597-16.858,61.337-24.611c10.867-3.875,16.975-14.516,16.975-14.516 c13.404,2.504,13.551-13.18,48.748-3.718c14.684,3.948,2.6-3.591,7.665-53.722c1.07-10.589,12.591-18.425,22.317-15.194 c1.816,0.603,3.95,0.505,5.911,0.364c15.8-1.138,64.151,24.494,63.513,7.617c-0.306-8.096,0.52-16.201-2.394-24.129 c-6.418-17.46,7.776-31.296-8.633-36.89c-13.888-4.735-8.756-20.072,1.1-20.841c31.864-2.484,40.769,12.355,61.179,15.731 c3.305,0.547,51.465,21.131,57.092,24.003c9.81,5.008,18.212,12.202,28.734,16.335c32.434,12.737,49.484,35.148,57.463,44.908 c11.84,14.482-14.316,16.404-2.967,21.164c4.297,1.802,1.581,9.022,7.498,13.879c4.751,3.901-7.407,18.231,9.809,19.327 c1.781,0.113,3.895-0.25,4.58,1.764c1.793,5.266-11.668,5.336-4.359,11.428C2127.337,544.773,2124.796,547.254,2127.499,550.108z M2161.721,665.343c-17.175-25.033-13.829-18.716-30.12-38.049c-10.298-12.222-18.4-26.441-30.869-36.708 c-6.916-5.695-12.234-13.427-20.927-16.914c-19.885-7.978-23.049-11.595-27.176-3.934c-0.539,1-8.053,3.017-17.411-2.596 c-2.449-1.469-4.878-2.738-7.732-0.854c0.785,2.659,1.834,4.856,4.484,5.511c14.816,3.66,28.888,9.872,44.006,12.566 c5.806,1.035,13.952-1.828,15.617,7.8c0.03,0.172,0.291,0.337,0.479,0.442c5.743,3.19,16.019,22.335,22.232,26.932 c8.009,5.926,12.521,14.937,19.23,22.087C2156.454,666.05,2157.286,668.045,2161.721,665.343z"/> <path d="M469.002,402.657c10.258,2.682,10.791,1.504,8.771,4.691c-1.933,3.051,13.835,9.171,16.638,9.908 c6.336,1.666,11.342,4.512,15.06,9.927c0.629,0.915,1.261,0.788-0.077,1.344c-4.019,1.669-4.424,4.668-3.256,8.471 c0.702,2.287-1.068,4.117-1.917,6.091c-2.896-2.277-6.922,0.791-9.491-1.798c-1.138-1.146-1.826-2.698-3.524-1.791 c-5.512,2.945-10.224,0.491-15.334-1.466c-11.603-4.443-24.098-3.356-36.175-4.797c-5.209-0.622-9.021,4.437-13.277,7.219 c-2.062,1.348-1.112,3.395-0.553,5.31c0.693,2.373,2.567,2.147,4.403,2.845c14.853,5.643,34.03,4.083,44.857,20.557 c3.51,5.341,7.093,11.126,12.016,14.957c15.159,11.796,24.934,28.608,39.749,40.891c7.562,6.27,13.699,3.905,20.645,2.802 c2.715-0.431,5.68-1.216,8.388-3.165c5.527-3.98,16.208-1.541,20.429,3.758c-9.46,1.678-18.186,5.456-27.621,9.346 c13.715,6.655,28.539,9.465,36.949,22.703c-1.931,3.047-6.298-2.845-7.504,2.049c-0.964,3.914,3.167,3.373,5.178,4.645 c2.679,1.694,2.183,5.892,6.019,7.066c1.284,0.393-0.959,3.407-1.907,2.818c-3.953-2.456-10.099,1.451-12.826-5.625 c-1.719-4.461-7.699-0.85-12.254-2.208c0.95,6.872,7.922,9.268,9.487,15.155c-3.056,2.686-6.692,0.656-8.898-0.824 c-8.014-5.376-16.887-9.766-22.884-17.806c-0.862-1.156-2.343-1.948-3.677-2.638c-13.491-6.978-24.656-16.91-34.17-28.478 c-63.358-77.04-18.764-31.362-67.319-73.382c-2.636-2.281-6.023-4.183-9.422-1.61c-5.516,4.175,6.8,20.533-6.037,25.673 c-3.246,1.3,2.421,8.567,0.518,13.592c-1.046,2.762-0.59,7.437-3.862,7.538c-9.508,0.296-7.323-6.849-11.199-5.865 c-3.4,0.863,11.22,25.164,0.078,27.498c-5.258,1.101-9.47-19.704-13.863-18.027c-5.654,2.159,9.253,30.632-2.297,32.445 c-4.688,0.736-3.724-4.533-4.771-7.288c-3.531-9.29-6.752-18.698-10.791-30.021c-2.363,14.25-5.662,1.719,0.006,32.919 c0.774,4.259-1.769,6.368-5.3,8.674c-5.407-11.006-7.027-23.013-11.243-34.559c-6.53,3.366-7.236,9.128-6.474,15.218 c0.94,7.51,0.213,15.012,0.472,22.512c0.138,3.986-3.522,3.712-3.899,0.676c-2.301-18.523-9.838-35.608-14.713-53.424 c-12.751-46.599-12.18-47.41-19.124-47.37c-76.086,0.439-60.742,32.227-108.171,46.83c-5.405,1.664-9.206-0.096-12.368-4.372 c-10.182-13.773,0.175-17.483-24.759-30.631c-9.335-4.923-19.72-5.311-29.643-7.396c-10.429-2.192-20.587-5.639-31.416-6.395 c-18.636-1.3-52.717,11.469-61.276,7.948c0.765-6.659,25.366-13.317,40.035-17.901c6.613-2.067,12.831-5.397,19.858-6.144 c8.861-0.943,13.656-9.356,21.393-11.959c25.642-8.626,27.488-14.894,58.633,2.702c9.016,5.094,18.959,8.226,27.722,13.932 c4.743,3.088,11.412-1.213,12.621-7.79c1.344-7.306,5.276-2.342,6.545-4.907c4.682-9.457,15.628-15.402,15.165-27.862 c-0.131-3.513,0.795-8.096,3.05-10.45c5.068-5.291,2.222-2.722-5.836-51.835c-4.122-25.123-5.086-10.28-5.403-27.984 c-0.363-20.328,1.695-24.33-4.93-27.736c-2.751-1.415-8.139-1.691-6.634-6.54c7.154-23.05,33.736-7.706,55.986-3.81 c6.124,1.072,9.465,6.875,15.882,6.942c7.857,0.082,14.013,6.631,22.031,6.626c2.718-0.002,4.711,2.077,6.629,3.135 c10.596,5.846,22.115,9.661,33.224,13.901c6.429,2.454,12.343,7.765,20.025,7.006c0.584-0.058,1.289,0.332,1.827,0.683 c20.711,13.535,26.359,8.517,50.201,37.817c3.286,4.038,6.411,8.373,11.422,10.6c10.947,4.866-6.211,23.366,21.758,36.132 C474.765,394.089,475.131,395.453,469.002,402.657z"/> </g> </svg>