<?xml version='1.0' encoding='utf-8'?>
<svg xmlns="https://www.w3.org/2000/svg" version="1.1" id="Layer_1" x="0px" y="0px" viewBox="0 0 6000 2817.487" enable-background="new 0 0 6000 2817.487"> <g> <path d="M6000,1932.814c-99.227-7.547-48.156,21.137-88.848,22.88c-8.651,0.371-10.865-8.613-15.893-13.495 c-0.456-0.443-0.71-1.373-0.643-2.035c1.974-19.238-13.841-25.948-25.913-33.038c-19.628-11.528-40.088-22.166-62.501-27.922 c-5.507-1.414-3.833-7.36,2.093-5.524c33.398,10.351,70.421,23.218,96.068,46.706c9.27,8.489,23.871,10.615,37.301,6.914 c19.416-5.349,38.818-4.784,58.335-1.047C6000,1928.441,6000,1930.627,6000,1932.814z"/> <path d="M3323.691,719.338c22.877,7.048,45.955,14.083,63.526,31.387c8.254,8.128,17.347,11.102,27.559,7.68 c12.117-4.06,23.989-5.337,36.996-2.805c-22.311-17.392-29.86-45.226-48.198-65.204c-2.208-2.405-3.948-5.663-6.66-7.069 c-3.008-1.559-9.165-8.858-8.95,2.775c0.039,2.096-2.423,3.813-5.339,4.631c-15.371,4.308-28.557,0.947-37.18-12.481 c-4.818-7.502-10.719-8.243-17.469-6.674c-17.599,4.09-35.028,8.907-54.223,13.873c41.631,13.21,81.021,27.136,123.726,27.937 c-0.245,1.481-0.49,2.961-0.736,4.441c-57.892,3.513-54.218-10.821-124.851-18.064c7.37,6.257,3.531,15.792,12.618,19.658 c7.366,3.134,11.634,10.7,17.157,16.433c6.127,6.36,15.457,6.307,22.424,10.457c13.744,8.189,26.77,17.848,28.323,35.929 c0.973,11.329,13.931,25.196,6.026,58.653c-3.931-15.186-19.187-80.929-34.32-84.991c-2.706-0.727-5.814-2.99-8.225-0.628 c-2.325,2.279,0.207,4.705,1.692,6.56c1.997,2.494,1.653,4.353-0.367,6.64c-2.078,2.352-3.95,3.877-7.434,2.83 c-13.173-3.96-26.927-6.624-35.367-19.356c-3.167-4.778-7.941-6.976-13.786-7.72c-3.101-0.395-8.198-1.101-6.37-6.535 c1.409-4.187,4.168-8.761,9.428-6.842c14.745,5.378,11.787-16.121-0.316-14.174c-1,0.161-52.941,7.681-52.648,17.096 c0.175,5.654,19.251,0.558,17.427,8.384c-1.517,6.51-8.593,0.706-13.131,0.348c-34.723-2.741-42.317-23.933-79.13-28.885 c-2.714-0.365-6.331-2.689-7.866,0.618c-1.42,3.059-2.577,7.476-0.459,10.479c19.357,27.45,26.003,76.81,34.075,87.594 c-7.532,3.51-16.451-22.009-19.012-29.341c-14.22-40.71-12.088-45.245-20.663-54.598c-4.52-4.93-7.778-0.174-11.605,0.642 c-7.089,1.512-13.807-0.801-20.217-3.108c-4.644-1.672-2.435-6.014-1.572-9.488c2.551-10.273,2.183-11.226-8.129-12.677 c-11.613-1.635-22.914-2.448-66.713,12.825c8.013-7.748,18.899-10.267,27.93-15.664c-8.481,0-17.034-0.463-25.514,0.127 c-8.884,0.618-15.955-4.667-24.11-6.264c-1.813-0.355-3.17-1.959-2.524-4.107c0.667-2.219,2.533-2.254,4.4-1.84 c24.289,5.388,48.928,4.813,73.555,4.255c14.592-0.331,49.1,11.197,71.288,13.148c32.804,2.885,45.519,34.662,67.54,12.706 c7.237-7.216,17.27-10.154,26.992-15.681c-5.365-3.593-13.942-3.713-8.827-12.937c1.205-2.173-3.773-4.575-7.073-5.432 c-3.886-1.01-9.179-2.189-8.879-6.554c0.33-4.789,2.896-10.026,10.873-9.415c-5.623-6.819-11.207-11.889-17.763-15.427 c-16.045-8.658-30.089-20.302-45.579-29.813c-12.798-7.859-23.563-18.388-28.593-33.319c-0.883-2.621-2.551-6.111,1.073-7.602 c3.171-1.305,4.155,2.173,5.128,4.36c5.127,11.518,17.804,9.092,40.221,34.073c19.472,21.7,39.811,25.378,50.395,37.722 c8.464,9.871,20.464,13.585,30.968,19.891c4.885,2.932,9.044,0.028,13.278-2.06c40.442-19.942,36.792-18.779,83.994-22.971 c2.52-0.224,5.458-0.667,7.579,0.326c17.699,8.287,36.523,15.049,50.581,29.227c17.16,17.306,28.441,39.538,46.012,56.613 c4.704,4.571-0.3,20.938,28.564,21.464c7.269,0.132,14.373,4.064,21.915,4.332c-0.215,4.427-2.569,3.454-4.687,3.125 c-12.18-1.889-24.638-2.293-36.637-4.372c-9.216-1.597-18.302-4.666-27.625-3.405c-9.122,1.234-20.003,0.215-22.943,13.411 c-1,4.489-15.721,8.504-20.432,6.679c-7.194-2.787-13.796-11.698-12.815-17.756c2.358-14.563-9.306-17.011-52.616-39.795 c-2.072-1.09-5.089-1.294-5.527-4.496L3323.691,719.338z"/> <path d="M2311.629,590.356c-16.246,11.281-40.348,5.318-31.414,19.464c13.6,21.534,19.026,46.019,23.91,70.601 c0.625,3.146-0.171,6.427-3.615,6.866c-4.174,0.532-4.231-3.249-4.044-6.06c1.169-17.617-5.186-33.554-10.886-49.632 c-4.848-13.674-12.795-19.456-25.762-19.442c-17.106,0.02,7.789,12.143-8.133,13.869c-12.287,1.332-23.601,2.198-35.458-5.468 c-7.558-4.886-18.763,0.656-28.194,2.532c-2.021,0.402-2.357,2.515-0.694,4.25c3.24,3.38-0.612,4.713-1.336,7.107 c-2.949,9.758-7.591,5.271-13.665,4.294c-9.928-1.598-19.336-2.424-25.16-12.173c-3.466-5.803-14.484,13.078-21.685,3.746 c-5.249-6.802-0.991-7.484,13.832-27.899c2.34-3.223,2.794-5.014,1.473-8.24c-7.367-17.994-19.735-33.091-28.875-50.052 c-2.629-4.878-42.02-18.703-63.522-30.622c-5.913-3.278-12.757-2.669-19.164-3.894c-4.454-0.851-9.632-3.056-4.764,5.347 c2.01,3.471-5.026,9.305-9.794,7.838c-3.653-1.124-7.124-1.2-10.723-1.056c-14.205,0.569-23.538-7.063-29.016-18.99 c-2.162-4.707-4.677-5.521-8.778-6.158c-85.86-13.345-95.495,5.678-135.106-23.499c-1.903-1.402-3.706-2.808-2.705-5.225 c1.339-3.234,3.86-2.149,6.408-1.299c72.456,24.173,95.618,14.215,114.16,15.771c15.416,1.294,30.88,1.496,46.259,2.73 c11.236,0.902,20.218,9.529,31.556,11.378c14.528,2.37,27.185,9.452,39.707,16.826c8.832,5.201,18.949,7.257,28.515,10.658 c5.524,1.964,6.025-0.428,3.957-5.303c-11.929-28.107-1.045-31.262-9.614-37.073c-32.574-22.09-41.228-48.125-76.702-70.417 c-4.555-2.863-7.493-2.433-10.027,3.245c-4.302,9.64-5.362,9.389-14.404,3.286c-6.285-4.242-13.654-7.055-17.39-14.329 c-2.675-5.208-5.383-10.61-4.136-16.586c0.811-3.888,0.072-6.598-3.333-8.122c-8.271-3.701-16.081-8.622-25.318-9.87 c-25.214-3.406-50.205-8.482-75.612-10.399c-12.492-0.943-21.923-9.501-33.47-12.698c-5.419-1.5-2.574-7.218,1.49-6.538 c14.304,2.393,29.128-0.711,43.199,4.216c8.57,3.001,17.164,5.97,25.868,8.543c51.189,15.136,30.3-1.006,96.407,28.138 c1.625,0.717,3.274,1.783,4.427,3.108c15.432,17.734,35.848,30.012,50.245,49.37c24.737,33.26,58.157,49.775,60.089,51.4 c2.712,2.281,7.272,5.099,4.986,8.378c-2.113,3.03-5.351-1.37-8.008-2.765c-2.379-1.249-4.525-5.157-7.257-2.887 c-2.53,2.101-0.227,5.425,1.061,7.98c20.87,41.399,10.279,29.842,45.214,43.739c1.662,0.661,3.576,1.901,3.262,3.878 c-0.694,4.373-7.07,0.867-10.628,1.253c-3.732,0.405-8.534-3.395-10.884,0.622c-1.737,2.97,1.523,7.014,3.467,9.876 c18.355,27.036,15.976,43.202,25.881,35.928c50.535-37.105,50.987,13.043,100.325,6.572c14.002-1.836,28.299-2.242,41.638-7.802 C2303.155,587.226,2306.66,587.743,2311.629,590.356z M2177.096,605.691c3.597-0.096,27.388,1.799,24.89-8.552 c-0.843-3.491-4.041-2.46-6.321-2.221C2188.624,595.655,2182.389,598.143,2177.096,605.691z"/> <path d="M5191.815,1517.89c-13.877,3.528-23.462,11.918-35.088,15.732c-3.522,1.155-2.716,4.38-3.013,7.321 c-0.928,9.193-9.146,17.691-17.334,18.572c-7.021,0.756-18.991-7.583-19.953-15.711c-1.578-13.321-6.694-16.841-72.342-46.838 c-14.758-6.744-25.75-17.381-35.041-30.22c-1.619-2.237-2.787-4.611,0.474-6.343c2.547-1.353,4.228,0.179,4.952,2.498 c2.42,7.749,9.342,10.832,15.268,14.895c44.12,30.25,62.645,32.135,76.759,40.855c28.915,17.861,46.235,1.1,92.116-15.49 c20.173-7.295,42.747-10.679,57.563-28.907c2.189-2.693,4.855-3.189,7.707-1.483c1.668,0.998,1.305,2.075-1.814,7.852 c28.689,4.523,52.067,16.643,66.776,43.509c7.467,13.64,16.656,26.35,24.179,40.066c5.287,9.638,11.972,11.442,23.017,8.833 c7.445-1.759,14.903-3.405,21.764-6.911c17.126-8.752,36.318-9.069,54.542-13.304c12.17-2.828,23.424,3.819,35.255,4.817 c12.178,1.027,23.117,6.216,34.156,10.383c20.199,7.626,42.375,10.531,60.159,24.171c3.051,2.34,7.826,4.677,6.267,7.762 c-3.941,7.798-73.563-23.578-81.493-26.587c-14.722-5.588-24.013-13.474-31.867,0.362c-8.105,14.28-23.75,13.348-31.826-1.472 c-2.632-4.831-4.977-4.562-9.129-4.534c-34.856,0.23-73.28,24.197-101.916,20.856c-2.777-0.324-7.629,1.699-7.219-3.771 c0.336-4.478,4.438-3.639,7.702-3.853c10.827-0.712,28.113-1.174,20.378-8.014c-19.356-17.118-24.793-48.585-49.202-67.319 c-4.762-3.654-10.241-7.936-13.688,2.407c-1.773,5.318-18.912,6.721-24.535,0.96c-18.12-18.565-29.941,0.368-93.448,32.493 c-10.193,5.156-10.972-1.029-5.958-3.31C5175.668,1533.761,5183.174,1526.681,5191.815,1517.89z"/> <path d="M4358.426,609.282c-41.786-4.469-54.173-22.357-103.92-58.188c-4.495-3.237-8.33-7.366-13.667,1.779 c-5.489,9.405-32.329,3.379-39.301-7.516c-3.086-4.822-4.439-10.706-9.58-14.292c-2.183-1.522-2.9-4.732-1.535-6.993 c5.157-8.539-1.204-10.316-6.962-12.612c-10.301-4.106-16.341-7.899-16.303,0.413c0.02,4.349-3.464,5.338-7.062,3.992 c-19.206-7.185-39.924-7.263-59.46-12.812c-8.536-2.425-15.47,0.146-54.039,11.051c-11.516,3.256-8.879,18.068-9.639,19.559 c-4.129,8.104-9.578,10.08-18.979,5.498c-13.603-6.629-21.417-17.707-20.638-32.922c0.365-7.135-2.348-10.307-7.515-13.961 c-31.988-22.623-77.476,5.133-79.914-14.604c-0.676-5.473,4.124-5.386,7.537-5.252c5.18,0.203,44.284-15.72,80.382,16.682 c15.311,13.743,44.356,11.784,61.894,3.607c18.81-8.769,37.034-3.561,63.889,1.518c-5.074-5.608-10.926-5.701-15.965-7.252 c-20.825-6.412-38.173-22.834-35.298-26.736c1.638-2.223,3.673-1.402,5.695-0.034c13.313,9.003,26.95,4.024,63.047,26.411 c13.103,8.126,37.941,8.373,56.065,22.962c9.807,7.893,11.856,0.141,40.386,20.361c14.219,10.078,31.336,15.666,44.147,27.583 c19.506,18.145,45.793,25.189,66.139,41.754C4351.326,602.126,4356.02,603.807,4358.426,609.282z M4139.15,497.492 c-3.044-3.35-6.409-5.333-12.653-3.887C4131.358,496.893,4135.247,497.383,4139.15,497.492z"/> <path d="M1273.579,505.509c-27.356-28.372-19.475-18.187-30.461-41.612c-1.023-2.182-1.585-5.317,1.739-6.435 c3.001-1.009,3.468,1.829,4.221,3.755c5.499,14.061,28.795,22.758,51.243,51.519c8.275,10.602,23.02,14.678,31.278,23.462 c12.732,13.544,54.948,40.576,55.957,40.816c32.345,7.705,85.268,42.276,120.525,37.438c4.924-0.676,13.547-2.204,15.914,7.514 c0.564,2.318,6.053,3.196,9.837,3.404c19.708,1.088,33.62,9.92,43.18,28.026c18.006,34.104,35.067,66.829,25.99,68.376 c-3.622,0.617-3.123-4.248-3.869-6.693c-7.835-25.695-20.38-48.884-36.918-69.937c-5.149-6.555-22.519-8.93-29.109-4.435 c-6.455,4.404,4.971,21.698-14.957,19.391c-35.971-4.165-24.45-28.274-37.057-25.508c-11.574,2.54-21.708,6.572-29.174,17.033 c-13.282,18.611-32.35,35.255-35.849,46.328c-3.079,9.746-19.053,8.063-12.386-5.329c33.103-66.491,40.205-70.232,78.449-72.044 c-4.909-5.73-11.662-2.612-16.527-5.178c-20.424-10.772-43.773-13.213-64.639-22.743c-1.092-0.499-7.434-6.838-4.653,2.403 c0.954,3.169-30.58,13.982-46.938-6.354c-9.313-11.579-22.924-0.925-21.088-13.26c0.861-5.785,3.908-9.731,10.393-7.388 c3.017,1.09,4.395,0.81,5.995-1.894c1.69-2.856,0.647-4.704-1.298-6.655c-5.393-5.411-10.201-11.586-16.231-16.149 c-17.548-13.28-34.572-27.355-53.905-38.126L1273.579,505.509z"/> <path d="M2536.406,334.928c6.131,17.021,21.624,29.076,23.623,47.681c-44.805-39.789-25.598-59.401-48.786-48.358 c-6.734,3.207-12.724,4.672-19.136-0.329c-2.962-2.31-3.513-4.335-0.645-6.935c3.488-3.162,6.734-6.526,10.902-8.985 c2.132-1.257,7.456-2.597,3.374-6.928c-12.509-13.272-11.264,22.094-42.094,2.715c-2.889-1.816-4.758-3.113-4.043-6.459 c1.864-8.723-3.079-9.049-9.773-8.874c-11.466,0.299-21.239,4.712-30.183,11.193c-11.864,8.596-26.173,12.601-38.19,20.865 c-1.735,1.193-3.911,2.182-6.871-0.506c20.817-14.236,38.537-33.776,64.501-37.788c17.42-2.692,35.925-6.508,52.538,4.892 c7.208,4.946,16.591,5.298,23.579,11.085c2.577,2.133,6.629,0.673,9.517-0.291c44.526-14.865,53.222,42.005,111.389,26.04 c25.248-6.929,39.869-9.036,61.324,25.203c7.664,12.232,14.149,22.303,30.002,21.356c1.853-0.111,4.047,0.202,4.313,2.365 c0.293,2.382-2.311,2.679-3.746,2.767c-8.663,0.532-17.334,1.733-25.9,2.075c-6.857,0.274-12.513-6.445-19.542-8.62 c-12.851-3.976-24.829-10.164-36.674-16.524c-4.112-2.208-7.362-2.524-11.671,1.097c-10.78,9.06-24.577,7.686-37.253,7.427 c-8.433-0.173-16.168-14.181-15.187-23.351c0.326-3.046,2.241-7.638-3.133-7.16 C2564.263,341.857,2551.131,334.674,2536.406,334.928z M2683.491,369.936c-14.974-23.846-31.253-29.677-50.649-17.979 C2651.128,354.034,2667.517,361.406,2683.491,369.936z M2546.297,325.5c8.292,2.386,16.583,4.772,24.874,7.158 C2564.454,324.585,2555.95,322.966,2546.297,325.5z"/> <path d="M2537.638,2599.758c31.164,0,31.378,0.791,32.666-2.726c1.172-3.199,1.656-6.242-0.96-9.162 c-6.014-6.711-13.414-11.836-22.124-12.974c-13.635-1.781-27.278-4.942-41.209-3.099c-3.022,0.4-6.086,1.026-6.765-3.092 c-0.776-4.708,3.084-5.849,6.14-5.751c9.134,0.294,17.8-2.725,26.956-2.797c42.127-0.333,41.347,42.47,78.386,17.461 c15.067-10.173,32.339-9.253,49.219-10.806c3.243-0.298,14.209,4.203,6.023-6.894c-1.513-2.052,2.109-4.964,4.638-2.608 c20.874,19.452,42.888,16.667,81.767,36.423c29.26,14.869,38.072,8.084,65.042,13.589c42.515,8.678,50.055,12.695,65.05,6.228 c1.837-0.792,4.488-1.597,5.435,1.195c0.716,2.111-1.496,3.045-3.002,3.951c-9.747,5.863-20.49,6.236-30.578,2.667 c-19.57-6.924-40.202-5.628-60.152-9.283c-3.946-0.723-7.819-0.506-9.566,4.716c-2.993,8.943-11.301,11.013-18.57,9.509 c-6.819-1.411-12.872-6.406-12.826-15.481c0.033-6.517-4.804-10.316-9.983-13.306c-13.678-7.898-56.977-21.834-57.979-21.719 c-25.848,2.972-52.141,2.345-76.979,12.725c-10.22,4.271-7.115,13.911-11.554,20.315c-2.94,4.241,17.757,7.235,33.207-2.759 c22.338-14.45,47.776-15.652,73.417-14.93c1.454,0.041,3.208,0.373,2.866,2.224c-0.78,4.22-5.396,3.73-6.673,3.707 c-21.46-0.383-41.751,4.416-61.391,12.946c-6.818,2.961-11.603,5.818-12.281,14.441c-1.171,14.913-23.651,23.747-29.872,5.266 c-5.044-14.987-17.947-17.948-30.127-19.515c-16.499-2.122-33.147-4.571-49.946-3.972c-11.311,0.404-12.67-6.345-5.59-6.409 c9.104-0.083,18.21-0.04,27.315-0.04C2537.638,2599.785,2537.638,2599.772,2537.638,2599.758z"/> <path d="M3706.141,571.304c11.822,6.925,19.634,17.655,33.788,16.579c3.936-0.299,3.256,6.439,7.364,9.225 c32.214,21.843,31.648,45.101,62.859,35.385c18.585-5.785,37.453-9.2,56.837-7.029c19.336,2.166,38.949,3.464,57.151,11.87 c-55.726-3.847-68.359-6.138-108.361,7.624c-12.355,4.251,9.204,13.252-11.25,18.406c-21.305,5.368-33.61-3.142-34.796-25.77 c-0.657-12.521-21.034-30.393-30.874-38.127c-2.842-2.233-5.4-3.09-8.937-1.476c-34.817,15.886-72.403,23.834-108.021,37.473 c-13.448,5.15-9.321,9.474-11.104,12.555c-3.902,6.734-2.151,18.751-15.091,17.142c-11.878-1.477-25.048-14.024-24.193-24.427 c0.625-7.598-2.8-9.874-8.377-12.286c-23.708-10.254-47.791-19.414-72.813-25.969c-24.889-6.52-38.664-19.247-41.059-23.176 c-0.999-1.639-0.781-3.578,0.626-5.037c1.912-1.982,3.143-0.295,4.364,1.015c25.459,27.346,76.372,25.359,110.556,45.044 c1.826,1.052,5.16,2.727,5.807,2.091c11.614-11.417,20.194,11.305,44.349,1.419c40.669-16.644,107.208-20.533,109.802-30.547 c1.024-3.954-7.941-7.014-12.969-9.431C3706.361,581.241,3706.014,577.263,3706.141,571.304z"/> <path d="M4367.328,944.799c0.219,5.277,6.78,5.004,5.507,8.456c-1.54,4.176-6.01,4.25-10.304,3.908 c-4.464-0.355-13.905,7.804-25.466-2.529c-5.901-5.274-9.123-13.253-17.019-16.534c-2.054-0.853-1.909-3.375-0.989-4.781 c5.127-7.841-1.044-8.904-6.16-10.727c-33.631-11.986-58.642,6.888-84.494-8.126c-2.622-1.522-6.937-2.88-4.715-6.869 c1.9-3.413,5.058-0.984,7.533,0.529c9.496,5.803,18.519,4.874,47.08,4.874c-36.375-17.562-13.193-26.077-33.558-26.178 c-78.339-0.39-68.04,1.236-83.766-2.877c-6.963-1.821-7.93-7.509-5.628-9.287c1.238-0.956,2.769,0.072,3.651,1.229 c3.627,4.757,8.73,4.402,13.887,4.348c18.543-0.196,37.086,1.897,55.632-0.056c15.029-1.583,29.527,3.351,44.424,3.78 c11.545,0.332,13.646,10.601,39.725,16.726c-6.378-13.073-17.939-23.001-16.395-38.565c4.545,5.204,9.391,10.192,12.897,15.705 c9.061,14.249,22.972,24.146,32.281,38.189c7.046,10.629,22.072,14.185,34.485,9.217c24.541-9.821,61.566-2.306,86.559-2.451 c2.196-0.013,5.851-1.531,6.247,2.145c0.376,3.483-2.956,3.52-5.499,3.419c-16.036-0.634-31.941,1.974-47.917,1.975 c-9.697,0.001-18.715,2.048-27.682,5.174c-1.629,0.568-4.076,0.053-4.527,2.234c-0.566,2.74,2.067,3.453,3.859,4.419 c18.151,9.782,34.817,22.341,54.611,29.088c2.567,0.875,4.677,3.097,6.55,6.907C4379.65,966.61,4419.133,958.837,4367.328,944.799z M4291.138,911.844c11.225,0.743,21.536,3.779,31.56,8.011C4307.845,903.946,4302.907,902.656,4291.138,911.844z"/> <path d="M243.898,1685.592c-8.724-7.803-20.15-2.899-18.663-12.303c0.811-5.131,10.491-2.355,13.462-0.935 c31.095,14.87,53.142-5.498,66.27-3.706c-9.234,8.208-20.941,8.452-32.252,14.869c35.127,10.965,44.725,44.507,73.008,30.8 c34.025-16.489,84.498-8.826,100.938-11.774c3.037-0.545,6.442-1.441,6.787,2.626c0.293,3.454-2.939,4.514-6.127,4.664 c-47.55,2.231-67.683,1.247-94.029,14.278c-16.33,8.077-5.566,30.56-32.677,24.98c-7.721-1.589-16.692-13.356-14.274-21.351 c4.422-14.62-19.18-26.619-37.547-36.834c-5.037-2.802-10.601-3.387-16.669-0.77c-54.622,23.557-59.523,20.237-63.721,33.906 c-3.186,10.375-12.249,12.656-20.915,15.255c-3.253,0.976-6.287-0.598-8.78-3.224c-5.47-5.763-9.916-12.394-16.455-17.309 c-3.388-2.547-3.191-8.045,0.496-10.442c6.848-4.452,1.955-6.652-0.912-9.631c-15.295-15.885-34.997-24.602-54.776-32.852 c-10.861-4.53-20.505-10.939-30.637-16.607c-1.876-1.049-3.731-2.995-2.612-5.312c1.049-2.172,2.958-1.042,4.572-0.022 c17.234,10.889,36.716,17.157,54.803,26.389c14.682,7.494,28.702,15.332,41.638,25.536c13.226,10.433,27.492,13.363,43.31,4.34 C211.737,1692.404,226.42,1686.989,243.898,1685.592z"/> <path d="M181.013,1476.976c-10.114-12.83-33.663-25.006-44.154-11.961c-8.709,10.829-21.032,7.642-25.138-6.019 c-1.314-4.37-3.811-3.765-6.341-3.859c-8.327-0.307-15.517,2.786-22.284,7.554c-11.909,8.391-25.298,14.604-36.037,24.853 c6.368-10.973,17.02-17.156,26.262-24.849c26.883-22.378,66.43-10.889,74.961-11.204c19.431-0.714,28.713,14.047,40.748,22.681 c27.798,19.941,33.275,2.639,64.564-4.245c88.583-19.49,119.581,26.488,148.426,27.957c1.895,0.097,4.362,0.811,4.278,2.505 c-0.142,2.838-2.869,2.394-5.063,2.36c-21.465-0.33-35.692-18.849-76.713-29.582c-5.887-1.54-11.613-2.197-13.819,5.899 c-1.224,4.492-6.407,5.366-11.099,8.813c17.316,5.852,29.492,16.684,41.366,27.88c2.691,2.537,7.34,5.278,2.917,9.739 c-3.609,3.64-6.996,0.666-9.286-2.063c-10.721-12.776-26.958-16.654-40.314-25.153c-11.653-7.415-31.536,1.042-36.73,14.425 c-2.965,7.639-14.213,14.49-21.951,13.37c-7.337-1.062-16.286-10.398-15.524-18.642c0.849-9.187-5.934-10.591-11.047-14.083 c-6.066-4.143-2.08,9.233-7.156,3.52c-6.773-7.622-14.859-5.918-22.912-3.606c-9.782,2.809-19.063,6.876-27.606,12.533 c-8.496,5.625-11.683,6.138-14.317,2.467c-2.203-3.07,0.105-4.649,1.987-6.302c10.718-9.42,22.14-17.694,36.047-21.87 C177.146,1479.472,179.379,1479.139,181.013,1476.976z M248.65,1496.644c3.739-0.002,7.821-1.291,11.735-3.366 c19.954-10.578,26.135-5.769,23.821-10.682c-3.223-6.844,10.506-24.34-62.638,4.449c-5.24,2.062-1.891,3.937,0.832,5.53 C230.401,1497.257,239.533,1494.544,248.65,1496.644z"/> <path d="M4957.188,627.213c-21.782-36.127-24.113-68.5-53.479-80.187c-2.2-0.875-4.928-4.884-7.272-0.566 c-1.665,3.067,0.633,5.396,3.004,7.377c2.561,2.139,28.189,20.605,30.97,28.622c2.722,7.857-5.796,6.796-9.025,2.648 c-8.972-11.528-21.795-18.186-33.845-25.354c-21.233-12.632-46.327-7.651-48.361,3.103c-1.976,10.439-16.363,18.015-25.868,13.297 c-31.188-15.481,0.614-32.484-37.936-10.728c-5.583,3.15-8.374-3.667-3.284-6.41c7.731-4.166,14.409-9.783,21.132-15.376 c4.181-3.479,4.26-6.817-0.001-9.583c-6.027-3.914-11.86-7.75-20.031-3.457c-9.3,4.886-20.086,6.366-29.591,11.131 c-4.956,2.484-10.026,0.312-12.666-3.289c-2.783-3.798,2.414-6.097,4.685-8.566c6.296-6.844,14.481-10.564,23.057-13.824 c17.155-6.521,28.561,4.401,39.803,13.674c17.477,14.414,9.136-15.05,64.628-8.496c19.222,2.271,33.817,12.442,50.407,19.089 c16.105,6.452,40.566,67.711,45.306,81.71c0.434,1.283,0.273,2.767,0.39,4.158C4958.537,626.528,4957.862,626.871,4957.188,627.213 z M4816.692,543.051c13.61,8.661,26.342,2.528,39.158-2.269c2.262-0.847,5.423-0.915,4.935-4.568 c-0.456-3.417-3.515-3.031-5.879-3.675C4839.967,528.473,4828.223,535.644,4816.692,543.051z"/> <path d="M524.035,1570.006c-34.193-40.541-53.192-42.378-55.317-35.019c-1.09,3.774-4.403,7.579,0.071,11.931 c14.116,13.73,24.911,30.233,37.334,45.371c7.413,9.033,9.993,21.142,19.583,28.521c3.734,2.873-2.015,9.364-6.416,3.131 c-6.484-9.181-14.711-16.967-20.463-26.76c-12.417-21.14-26.807-40.397-50.691-50.104c-16.726-6.798-6.336,10.421-35.077,7.164 c19.326,15.672,19.921,15.176,18.169,18.201c-1.99,3.437-5.079,2.54-7.434,0.468c-9.632-8.474-22.066-10.762-33.399-15.481 c-11.238-4.679-23.646,0.68-23.413,6.23c0.438,10.469-7.689,13.914-15.11,15.493c-18.805,4.001-14.287-24.921-31.552-12.75 c-7.627,5.376-16.515,8.967-24.865,13.313c-1.893,0.985-4.564,2.675-5.516-0.001c-0.533-1.498,0.234-4.773,3.732-5.594 c6.441-1.511,12.033-4.795,17.519-11.025c-14.354,3.113-25.774,8.759-35.963,17.231c-3.404,2.83-8.074,8.724-11.628,4.286 c-2.657-3.319,4.638-6.171,7.727-8.778c15.607-13.166,32.921-21.737,54.086-22.648c9.735-0.419,17.843-8.084,25.812-13.474 c19.256-13.023,41.062-16.013,63.092-18.088c23.286-2.194,45.973,6.054,69.373,5.117c6.128-0.245,11.934,3.873,16.824,8.947 c8.773,9.103,19.304,16.607,23.733,29.215C524.713,1566.231,525.84,1567.382,524.035,1570.006z M391.479,1535.799 c-18.613-0.674-33.973,4.771-47.468,15.391c-2.282,1.796-7.467,2.228-6.116,6.022c1.269,3.564,6.337,1.363,15.295,1.083 C369.648,1557.781,379.011,1545.374,391.479,1535.799z M406.765,1551.322c-2.105-2.384-5.697-4.562-6.059-7.186 c-1.643-11.914-6.916-5.829-11.129-2.401c-2.229,1.814-5.714,3.081-6.11,7.451C391.465,1548.55,398.751,1550.263,406.765,1551.322z "/> <path d="M4000.083,1862.767c-55.615-13.135-52.382-42.943-94.377-57.03c-5.962-2-9.349-3.146-14.241,3.467 c-10.632,14.372-25.593,13.24-35.709-1.76c-2.59-3.84-4.494-5.257-8.549-3.287c-20.327,9.873-58.721,21.517-39.178,29.74 c27.163,11.428,46.253,41.978,64.555,56.06c1.129,0.869,3.979,1.329,2.479,3.811c-1.399,2.313-3.836,2.348-5.62,0.743 c-34.701-31.23-14.432-20.767-61.177-50.264c-12.048-7.602-13.359,15.558-34.068,7.657c-7.693-2.935-13.496,4.038-20.765,4.132 c-5.128,0.066-10.109,4.157-15.233-1.122c-2.762-2.845-5.149,1.09-7.276,2.598c-14.345,10.174-42.612,24.24-45.732,20.3 c-2.663-3.363,1.279-5.206,2.87-7.162c5.802-7.135,13.093-13.102,20.953-17.286c23.99-12.773,48.454-24.781,75.914-28.449 c6.333-0.846,11.577-3.256,16.465-7.574c12.345-10.906,25.802-19.794,42.597-22.84c9.844-1.785,18.063-9.313,28.992-8.289 c17.203,1.611,13.201,6.704,29.718,9.581c12.211,2.127,22.582,8.25,31.391,16.417c15.809,14.654,34.506,25.497,50.659,39.594 C3989.216,1855.702,3996.712,1854.942,4000.083,1862.767z M3744.311,1849.965c8.033,1.186,13.229-2.254,18.604-4.984 c2.094-1.063,3.632-2.968,2.812-5.251c-1.052-2.931-3.52-1.581-5.475-0.886C3754.443,1840.913,3749.303,1844.005,3744.311,1849.965 z"/> <path d="M4701.322,830.272c7.97,5.434,16.488,9.461,25.798,12.69c-5.008-6.982-33.971-48.345-40.011-42.165 c-16.062,16.439-33.117,11.796-40.123-11.099c-1.067-3.489-2.72-3.808-5.462-3.239c-26.199,5.441-53.439,6.469-78.187,18.049 c-8.841,4.137-18.26,4.399-27.631,5.231c-2.983,0.265-6.417-0.162-6.89-3.718c-0.659-4.962,3.638-3.276,6.113-3.534 c20.737-2.163,40.737-8.28,59.688-15.918c22.807-9.193,46.145-8.012,69.501-9.518c2.425-0.156,5.363,0.409,7.345,1.723 c57.99,38.459,16.286,6.312,88.828,79.329c2.683,2.7,6.751,4.3,10.455,5.662c17.656,6.492,42.503,29.196,66.252,22.755 c32.347-8.773,75.617-2.521,105.184-14.059c0.85-0.331,2.028,0.18,3.214,0.317c-3.959,14.164-113.519,11.447-115.593,31.276 c-1.358,12.973-5.819,14.249-18.865,10.913c-7.653-1.957-14.23-8.849-13.288-16.539c1.57-12.791-5.998-17.751-14.82-22.148 c-3.835-1.911-6.847-7.562-13.905-2.049c-2.933,2.291-13.764-3.04-19.036-7.997c-7.952-7.477-17.635-11.325-27.198-15.7 C4713.384,846.276,4705.007,840.891,4701.322,830.272z"/> <path d="M2751.82,706.377c-2.3-5.604-10.418-24.327-4.688-26.208c2.373-0.779,2.397,1.61,3.39,2.995 c39.446,55.013,60.963,31.954,77.566,60.502c6.542,11.249,14.368,22.017,17.974,34.72c1.51,5.318,4.79,5.922,8.931,5.558 c39.351-3.457,77.946,9.179,117.303,5.489c0.638-0.06,1.322,0.371,4.474,1.33c-34.53,9.739-90.218-1.216-110.51,7.788 c-2.875,1.276-12.731-1.141-7.103,8.439c1.781,3.032-29.727,16.594-45.053-12.168c-9.03-16.942-13.805-4.193-13.266-18.797 c0.387-10.481,13.885,1.341,9.544-8.376c-18.231-40.832-37.83-17.04-46.248-49.099c-1.561-5.945-9.502-4.628-14.635-3.031 c-17.685,5.498-35.553,10.732-50.59,22.317c-5.352,4.123-11.363,9.093-14.911,3.594c-2.099-3.252,1.142-4.585,3.128-5.702 c11.708-6.587,21.503-16.086,33.939-21.636C2730.648,709.816,2739.534,703.69,2751.82,706.377z M2797.082,732.537 c7.7,8.189,14.157,15.949,21.556,22.673c7.346,6.677,7.715,19.372,19.336,22.266c-4.951-13.734-11.204-26.434-20.937-37.452 C2811.693,733.974,2805.98,731.686,2797.082,732.537z"/> <path d="M1392.301,344.051c-15.73-2.328-31.389,2.897-47.076-0.604c-16.629-3.712-33.507-6.415-49.696-11.983 c-8.594-2.956-17.119-4.149-12.827,3.87c3.328,6.217,0.399,11.003-5.995,9.398c-5.515-1.385-9.846,0.201-14.701,1.275 c-23.215,5.137-30.814-24.485-56.212-20.692c-3.452,0.516-5.647-1.115-4.224-5.233c3.547-10.263,9.17-12.553,18.695-7.451 c1.569,0.841,3.218,2.576,4.844,1.224c2.614-2.173-0.046-3.987-1.286-5.326c-37.95-40.98-65.301-38.46-88.126-60.49 c-1-0.965-18.184-15.709-14.435-21.305c2.933-4.378,10.253,2.908,15.802,4.63c18.057,5.604,35.81,12.28,49.574,25.878 c17.181,16.974,32.213,19.801,53.912,41.879c27.733,28.217,42.9,18.902,61.466,25.486c26.263,9.313,53.645,11.882,81.118,14.139 c3.173,0.261,6.25,1.688,9.372,2.574C1392.437,342.23,1392.369,343.141,1392.301,344.051z"/> <path d="M4703.713,2402.223c-36.666,10.586-71.327,19.572-105.081,34.406c14.307,16.174,20.105,15.286,58.179,50.172 c11.244,10.302,25.207,15.619,40.96,10.33c23.539-7.902,77.856-14.628,91.208-29.813c1.397-1.589,3.315-5.113,5.833-1.549 c4.004,5.669-17.041,18.106-33.216,22.088c-69.942,17.216-71.61,18.851-73.514,25.252c-4.881,16.417-32.067,14.275-32.18-3.328 c-0.096-15.023-10.99-22.738-19.609-30.985c-44.361-42.448-43.916-38.181-44.887-30.65c-1.635,12.675-3.805,14.359-16.418,15.092 c-9.044,0.525-20.221-5.853-20.589-14.199c-1.458-33.082-56.793-36.448-90.68-73.947c-2.94-3.253,0.146-9.363,3.433-4.878 c21.42,29.228,69.839,37.523,84.967,56.975c2.563,3.294,25.93,6.534,29.001,4.435c6.529-4.462-10.909-11.277-3.838-15.434 c8.179-4.808,3.976,17.775,17.334,10.794c28.198-14.736,59.481-18.099,90.079-23.776 C4690.109,2402.202,4695.365,2397.787,4703.713,2402.223z"/> <path d="M453.888,409.927c-41.637-19.279-43.656-34.096-78.794-62.759c-5.974-4.873-20.613-26.785-27.619-21.898 c-4.848,3.381,4.566,13.435-0.784,17.188c-2.397,1.681-5.542-0.154-7.855-2.143c-1.921-1.651-4.011-0.926-6.192-0.627 c-36.938,5.055-23.288-28.174-45.47-24.569c-51.693,8.4-58.888,19.348-105.426,50.53c-1.46,0.979-3.373,2.375-4.414-0.069 c-0.651-1.528-2.842-3.718,0.5-5.336c30.091-14.565,46.77-50.016,116-59.817c11.746-1.663,25.417-2.35,37.194,4.553 c9.092,5.329,19.154,8.642,28.682,13.037c14.698,6.78,72.13,51.618,91.052,82.968C452.074,403.161,453.522,405.195,453.888,409.927 z"/> <path d="M678.533,1281.04c-15.446,8.425-32.48,3.72-48.877,8.154c23.444,8.686,23.693,12.024,89.645,70.531 c1.877,1.665,2.986,3.58,1.509,5.53c-1.796,2.372-3.818,0.444-5.668-0.632c-42.611-24.783-45.22-47.831-76.633-61.808 c-5.517-2.455-9.667-3.398-13.929,4.185c-6.993,12.442-17.051,12.357-27.821,1.891c-3.608-3.507-5.884-9.41-13.107-5.529 c-4.799,2.579-9.097,3.955-11.066,10.468c-3.609,11.939-18.35,16.192-27.84,8.041c-6.738-5.787-10.95-6.28-17.967-0.27 c-9.321,7.982-19.198,15.61-30.541,20.865c-2.207,1.023-4.773,3.992-6.662,1.395c-2.189-3.01,1.918-3.6,3.543-5.193 c11.964-11.731,24.198-23.06,39.26-30.883c6.914-3.591,2.711-7.674-0.788-9.818c-14.819-9.08-29.959-17.462-47.198-21.525 c-6.508-1.534-38.582-9.976-45.389-14.472c-2.516-1.662-0.711-6.909,2.977-4.262c23.202,16.643,64.141,11.021,91.312,32.38 c20.733,16.297,22.24-9.49,82.159-6.806c19.592,0.877,39.127-3.08,58.798-2.25C675.676,1281.093,677.106,1281.04,678.533,1281.04z"/> <path d="M5382.396,2203.735c-2.623,7.303-6.763,9.15-11.101,11.104c-19.864,8.945-39.032,19.426-59.824,26.318 c-9.125,3.025-14.568,12.045-23.633,15.469c-2.882,1.089-0.994,3.793-1.097,5.786c-0.437,8.494-7.168,13.525-12.08,18.792 c-2.804,3.006-10.336-0.561-13.088-3.791c-18.35-21.524-2.311-14.657-13.312-28.503c-15.193-19.127-37.292-30.101-54.653-46.586 c-9.229-8.763-20.048-11.815-31.875-10.67c-18.172,1.76,2.759-15.063-18.234-23.671c-43.115-17.68-70.256-15.636-77.271-17.125 c-1.772-0.377-3.747-1.296-3.705-3.391c0.063-3.107,2.547-2.911,4.765-2.741c63.573,4.866,49.552,2.269,87.759,17.55 c33.674,13.469,23.698-18.303,98.389-24.393c2.154-0.176,4.673-1.047,5.417,1.836c3.431,13.3-33.61-0.991-65.742,23.568 c-12.101,9.248-4.262,12.935-6.52,15.719c-8.533,10.53,0.563,13.132,7.353,17.35c20.958,13.021,42.195,25.468,59.723,43.516 c9.031,9.3,22.59,9.976,33.631,4.264c23.389-12.101,48.533-19.317,72.906-28.631 C5367.441,2212.739,5373.595,2208.37,5382.396,2203.735z"/> <path d="M4881.538,2319.919c-2.863,5.858-6.918,6.228-10.637,6.569c-15.585,1.43-30.574,6.075-46.014,8.486 c-13.779,2.151-26.871,8.682-40.279,13.242c-3.876,1.319-3.764,4.559-4.534,7.825c-5.662,24.044-34.725,10.304-32.704-2.142 c2.731-16.829-9.946-24.206-18.688-33.208c-15.708-16.177-35.468-27.687-52.936-41.934c-9.639-7.862-22.186-3.51-26.685,8.076 c-6.325,16.289-24.611,12.969-29.872,2.451c-7.152-14.298-54.183-10.36-77.734-10.784c-12.018-0.216-22.737-4.339-33.676-8.218 c-2.202-0.781-4.156-2.084-3.111-4.749c1.282-3.268,3.797-2.528,6.328-1.418c35.037,15.362,77.953,3.968,96.2,9.542 c0.017,0.005,130.589-15.075,130.607-15.077c13.373-1.542,18.52-7.807,20.063-2.437c0.646,2.246-1.429,3.096-3.042,3.823 c-8.6,3.874-17.026,7.834-26.734,8.899c-42.757,4.692-49.773-1.004-51.098,4.535c-0.767,3.207,3.121,4.417,5.457,5.916 c20.144,12.933,39.678,26.675,57.449,42.79c7.031,6.379,15.483,25.684,45.538,15.101c24.307-8.56,49.356-11.521,74.72-13.322 C4866.925,2323.407,4873.583,2322.262,4881.538,2319.919z"/> <path d="M2246.613,2565.101c-6.823,7.792-15.631,11.878-25.069,14.398c-21.074,5.626-38.787,18.125-57.879,27.79 c-3.532,1.788-7.136,4.41-7.08,8.928c0.1,8.049-6.265,11.209-11.257,14.975c-5.199,3.922-17.346-2.821-17.693-10.342 c-0.292-6.34-3.62-8.598-8.161-11.353c-20.119-12.207-42.231-18.942-66.2-25.094c25.697,24.301,28.043,25.061,24.307,29.058 c-3.872,4.142-5.816-0.83-7.373-2.804c-8.935-11.335-21.73-17.113-34.099-22.907c-10.934-5.122-22.883-1.728-34.271,0.559 c-3.122,0.627-2.648,3.753-2.904,6.313c-0.734,7.36-8.277,14.419-15.458,14.745c-5.823,0.265-15.041-7.885-14.813-14.775 c0.25-7.547-3.912-8.119-9.339-8.642c-21.562-2.081-38.453,8.185-54.695,20.364c-3.413,2.56-6.684,9.861-11.06,5.11 c-4.099-4.451,3.033-7.692,6.012-10.733c14.727-15.031,39.975-31.217,60.732-22.615c27.172,11.261,41.483-2.578,68.416-2.509 c2.766,0.007,9.582,5.671,5.474-4.09c-0.651-1.548,2.125-2.607,3.929-1.159c17.844,14.319,41.736,9.344,79.709,27.766 c15.975,7.75,31.213,6.817,46.694-1.976C2190.198,2581.529,2218.694,2574.092,2246.613,2565.101z"/> <path d="M4167.354,2587.423c33.693,7.258,52.054,39.23,80.284,56.344c1.327,0.804,3.775,1.54,2.412,3.898 c-4.103,7.098-11.477-7.775-27.172-17.489c-13.943-8.63-50.385-43.019-65.273-28.545c-22.445,21.821-25.26-8.263-33.91-9.437 c-8.688-1.179-16.86-1.632-25.491,2.206c-44.827,19.941-66.599,34.136-69.069,26.301c-1.1-3.49,4.6-3.16,7.254-4.46 c60.652-29.712,65.878-33.441,87.455-34.188c137.962-4.782,125.508-17.975,222.884,49.617c4.448,3.088,8.711,2.865,13.327,3.13 c7.114,0.409,3.403,7.345-0.441,6.069c-5.408-1.796-11.249-1.975-16.156-5.783c-14.718-11.425-32.492-17.63-48.169-27.543 c-28.188-17.824-27.599,14.887-52.608-1.498c-12.204-7.994,6.43-11.862-9.789-17.879c-9.675-3.589-19.485-6.105-29.866-3.7 C4191.216,2587.203,4179.171,2586.532,4167.354,2587.423z"/> <path d="M5483.059,1742.504c6.806,1.81,13.581-2.513,20.928-2.106c69.506,3.852,65.408,23.527,105.219,27.402 c1.883,0.183,5.111,0.198,4.904,2.929c-1.013,13.366-54.351-10.969-66.134-16.241c-8.483-3.795-24.235-5.074-28.546,3.178 c-8.146,15.596-20.575,5.897-26.38,8.145c-54.923,21.27-78.93,24.58-78.936,42.413c-0.003,7.896-9.212,15.162-17.181,15.106 c-8.403-0.06-15.582-6.759-16.026-15.768c-0.966-19.552-41.604-26.694-71.091-41.042c-2.044-0.995-25.128-10.613-21.944-15.53 c1.385-2.138,3.33-0.521,4.633,0.496c21.051,16.431,51.559,15.905,81.368,35.083c14.062,9.047,32.327,9.071,46.034-0.298 c9.093-6.216,18.96-10.564,29.733-12.966c12.063-2.689,23.305-7.868,34.927-11.894c2.653-0.919,5.895-2.062,4.992-5.974 c-0.712-3.086-3.684-3.032-6.101-3.543c-14.199-3.006-22.396,1.902-73.228,21.803c-13.017,5.096-13.968-4.052-8.88-4.94 c23.598-4.116,43.728-17.413,66.033-24.966C5472.386,1742.097,5477.372,1742.295,5483.059,1742.504z"/> <path d="M2568.403,594.372c-6.155-25.426-17.764-48.584-24.608-73.334c-1.604-5.8-5.911-9.931-8.815-14.886 c-10.986-18.747-33.352,22.448-56.379-1.834c-4.146-4.372-7.531-12.238-13.301-11.704c-7.582,0.701-16.276,3.829-21.881,8.836 c-19.667,17.568-43.432,31.142-56.355,55.588c-2.041,3.86-5.123,6.663-9.673,3.632c-3.584-2.388-2.753-5.501-0.152-8.29 c31.614-33.893,39.64-71.876,76.751-75.621c12.814-1.293,25.707-8.166,38.582-3.044c17.896,7.12,37.569,11.357,50.326,27.992 c6.372,8.309,7.547,18.759,12.25,27.792c9.495,18.237,14.876,37.783,15.912,58.407 C2571.162,589.963,2571.647,592.319,2568.403,594.372z"/> <path d="M4792.219,466.887c-76.499-47.204-64.34-45.047-111.695-48.688c-9.542-0.733,5.112,16.477-13.601,23.234 c-13.456,4.859-25.452-5.812-28.04-9.516c-3.174-4.543-6.865-4.474-11.355-2.165c-15.86,8.154-31.17,16.445-42.225,31.62 c-12.831,17.613-30.898,30.777-43.908,48.425c-5.014,6.801-10.181-3.368-3.757-9.478c27.899-26.536,36.958-63.866,69.061-78.417 c50.53-22.902,24.371-23.751,63.94-19.156c4.996,0.58,9.934,2.125,15.043,1.717c24.584-1.962,36.468,9.804,103.582,55.828 C4790.74,461.302,4791.988,462.6,4792.219,466.887z"/> <path d="M5322.979,472.247c-1.198,10.862-2.11,11.393-11.96,8.202c-2.048-0.664-4.173-1.501-6.272-1.531 c-10.649-0.152-17.322-5.968-19.899-15.555c-2.06-7.662-6.193-8.856-13.19-8.508c-31.441,1.56-89.846,15.125-97.61,16.699 c-2.497,0.506-6.398,2.459-6.887-2.081c-0.39-3.618,3.401-3.201,5.724-3.245c20.09-0.378,65.67-28.261,91.543-26.001 c17.691,1.546,36.546-2.038,52.391,9.786c17.248,12.87,31.879,26.859,37.958,49.278c4.132,15.241,24.679,73.874,14.971,77.102 c-9.099,3.026-20.6-40.113-23.488-49.101c-5.523-17.191-9.414-35.118-19.587-50.535 C5325.721,475.318,5324.483,474.069,5322.979,472.247z"/> <path d="M713.81,745.31c-36.529,4.795-57.243-10.096-120.799-39.425c-5.816-2.684-10.18-2.563-13.671,4.823 c-4.263,9.018-18.948,12.653-27.732,7.695c-25.095-14.165-9.337-21.518-22.656-21.814c-27.192-0.605-47.352,2.624-112.057,1.851 c-10.871-0.13-19.154-8.349-29.237-11.334c-1.301-0.385-2.439-1.83-1.582-3.488c2.838-5.492,11.238,1.869,19.029,3.024 c68.818,10.207,79.198-0.544,113.91-0.194c33.86,0.342,23.718-6.549,51.6,1.806c40.693,12.194,78.812,31.304,119.292,44.047 C698.53,735.015,706.388,739.508,713.81,745.31z"/> <path d="M1274.019,2666.28c26.442,0.947,53.057-6.325,79.225,3.468c14.228,5.324,28.016,5.281,41.246-4.712 c20.966-15.834,43.747-13.578,75.584-26.398c1.88-0.757,4.307-2.549,5.716,0.134c1.517,2.886-0.665,4.883-3.085,6.009 c-31.63,14.719-40.17,5.92-68.357,24.264c-5.203,3.386-16.922,12.427-6.642,14.548c17.855,3.684,77.134,6.303,96.592,4.196 c36.076-3.906,73.531-1.183,107.654-17.541c2.665-1.278,6.299-2.947,7.725,0.263c1.731,3.898-2.953,4.122-5.221,5.198 c-16.935,8.03-34.836,12.109-53.497,13.909c-12.625,1.218-25.097,4.066-37.617,6.299c-5.195,0.927-8.675,3.796-12.06,8.225 c-11.303,14.79-28.98,12.459-36.621-4.496c-1.516-3.364-3.942-4.059-6.795-4.364c-21.001-2.244-42.123-1.574-63.179-2.539 c-4.008-0.184-6.635,2.029-9.602,4.297c-7.377,5.641-16.527,5.583-22.513-1.542c-4.441-5.286-10.52-9.571-12.899-16.394 c-3.531-10.126-45.744-8.494-52.12-8.391C1289.378,2670.848,1281.407,2670.854,1274.019,2666.28z"/> <path d="M4732.029,140.602c-10.001,2.501-23.567-2.673-35.685,5.321c-4.92,3.245-8.729-0.551-10.936-5.323 c-2.811-6.082,2.092-6.806,5.78-7.685c51.004-12.152,72.815-12.179,101.981,16.129c16.568,16.079,31.792,17.074,47.883,1.029 c37.202-37.094,86.105-19.358,98.766-18.342c2.631,0.211,8.346-0.637,7.155,5.473c-0.951,4.881-4.608,8.093-9.172,7.213 c-18.729-3.611-37.581-0.432-56.36-1.684c-25.502-1.7-46.025,22.328-43.442,31.437c1.936,6.83-1.688,10.98-5.667,15.413 c-17.781,19.807-37.463,0.864-37.408-14.182c0.101-27.545-25.533-36.983-43.945-34.489 C4745.455,141.659,4740.092,140.398,4732.029,140.602z"/> <path d="M3524.359,453.297c-19.205-13.965-33.791-30.386-45.928-48.86c-7.233-11.009-16.585-20.19-24.219-30.801 c-2.052-2.852-4.749-5.809-8.727-6.079c-4.069-0.276-9.366-3.076-8.61,5.713c0.357,4.15-2.606,9.407-9.355,5.62 c-1.274-0.715-3.511,0.121-5.265,0.451c-11.63,2.192-21.176-1.738-27.494-11.297c-5.368-8.121-12.231-8.92-20.719-7.854 c-14.176,1.78-25.577,10.251-38.176,15.664c-18.952,8.143-38.365,15.683-55.318,27.939c-1.578,1.141-10.358,6.019-11.5-0.846 c-0.533-3.204,1.53-3.512,3.831-3.742c10.267-1.027,17.727-7.202,25.781-12.97c74.243-53.162,68.327-34.859,101.51-45.763 c5.263-1.729,11.698-0.38,17.054,2.08c23.462,10.774,46.615,22.08,61.015,45.114c10.039,16.057,21.41,21.12,43.797,54.085 C3523.964,444.591,3524.523,448.229,3524.359,453.297z"/> <path d="M3701.992,40.464c-21.569-5.051-43.353-1.203-64.998-0.653c-17.805,0.453-41.058,13.995-43.215,29.425 c-1.794,12.839-10.379,21.733-21.066,21.578c-10.321-0.15-22.77-11.823-23.333-22.424c-0.364-6.854,0.611-13.649-5.247-19.195 c-8.978-8.5-17.117-18.242-29.91-20.945c-19.508-4.123-32.428-19.044-63.392-16.949c-4.129,0.28-7.918-0.485-7.414-6.442 c0.313-3.696,1.425-5.449,5.264-4.682c41.781,8.353,71.282,13.273,101.134,43.33c11.201,11.277,30.926,12.458,43.698,2.797 c3.467-2.622,6.984-5.183,10.386-7.888c25.168-20.004,76.015-9.706,103.164-12.959c5.84-0.7,5.62,3.874,5.414,7.144 C3712.089,38.787,3708.306,41.523,3701.992,40.464z"/> <path d="M5842.148,1117.688c-23.667-35.092-14.407-47.402-45.782-84.61c-1.619-1.92-3.516-4.026-6.382-3.561 c-4.217,0.685-1.502,4.001-2.089,6.098c-2.823,10.093-5.123,5.695-13.217,7.196c-35.832,6.641-22.977-25.253-43.706-21.391 c-34.25,6.382-17.428,7.509-41.061,16.269c-24.48,9.073-26.018,19.691-35.574,24.477c-2.616,1.31-5.848,1.039-7.86-1.75 c-2.212-3.066,0.684-4.667,2.359-6.292c46.057-44.652,47.011-48.199,88.568-48.697c23.531-0.282,43.292,10.454,63.54,20.024 c13.392,6.33,20.468,18.405,25.548,31.206c2.816,7.098,5.17,14.678,9.627,20.504 C5845.893,1089.932,5841.904,1103.895,5842.148,1117.688z"/> <path d="M3167.145,194.186c0.125-10.011-5.508-17.537-13.115-24.108c-15.629-13.5-35.007-20.528-52.736-30.367 c-9.766-5.419-19.138-11.824-30.491-14.288c-5.01-1.088-4.421-6.336-2.843-9.906c1.993-4.507,4.899-0.831,7.05,0.363 c31.518,17.493,57.805,18.954,92.432,55.582c10.61,11.223,32.249,14.09,43.579,4.263c38.59-33.47,89.887-29.89,108.771-36.445 c3.399-1.18,6.836-3.61,7.729,2.875c1.843,13.381-10.949,6.572-22.861,9.197c-28.672,6.317-95.321,20.969-97.289,50.157 c-0.59,8.744-7.578,11.965-14.052,15.067c-6.127,2.936-12.13,1.643-17.036-3.265 C3171.171,208.196,3164.902,203.628,3167.145,194.186z"/> <path d="M4018.231,177.072c-12.262,0.067-24.539-10.896-24.463-23.92c0.085-14.492-8.021-21.695-18.338-28.244 c-44.424-28.198-89.529-50.207-92.519-63.763c-0.456-2.065-1.991-4.366,0.418-5.925c4.387-2.84,0.955,2.516,18.404,14.788 c24.102,16.95,50.385,30.218,75.56,45.349c9.228,5.546,15.805,14.598,26.306,18.601c57.219,21.812,33.396,3.826,86.631,9.675 c22.132,2.431,44.333,0.041,66.424-1.887c6.368-0.556,14.415-11.138,18.244-3.589c1.24,2.443-1.948,3.135-3.635,4.182 c-16.113,9.996-31.243,5.574-112.87,14.474c-8.204,0.895-16.377,2.435-21.415,11.895 C4033.379,175.468,4023.891,175.489,4018.231,177.072z"/> <path d="M4752.15,1509.255c-1.616-3.981-0.375-10.655-6.867-11.075c-7.701-0.499-15.896-3.902-22.95,2.597 c-11.596,10.683-27.551,14.724-39.096,25.566c-3.36,3.155-6.795,1.363-9.75-1.13c-3.872-3.268-0.666-6.042,1.193-8.239 c54.729-64.707,65.719-10.696,111.813-23.448c2.078-0.575,4.531-0.474,6.25-1.567c20.454-13.018,42.309-7.05,63.772-4.607 c15.283,1.74,29.176,8.483,43.369,13.957c3.143,1.212,7.791,1.802,5.451,7.255c-2.007,4.674-5.707,3.905-9.173,2.314 c-16.657-7.649-34.514-11.272-52.216-15.14c-16.8-3.671-32.547,0.368-46.614,10.131c-2.857,1.984-8.988,4.778-1.253,9.035 c2.32,1.277,0.558,3.019-0.492,4.492C4783.115,1536.903,4761.155,1531.448,4752.15,1509.255z"/> <path d="M3890.159,359.518c28.796-6.897,39.451,13.665,53.713,21.412c18.838,10.232,20.476,27.772,31.855,37.835 c17.53,15.503,25.553,36.789,36.328,56.431c1.122,2.046,3.44,4.73,0.055,6.537c-2.468,1.317-3.583-1.809-5.028-3.05 c-15.061-12.932-26.049-28.927-36.316-45.857c-9.333-15.39-17.631-31.729-31.08-44.409c-3.494-3.294-5.123-5.094-8.898-0.021 c-12.225,16.431-37.469,5.163-38.78-11.646c-0.389-4.998-2.777-6.228-6.961-5.943c-4.705,0.32-9.469,0.401-14.086,1.245 c-92.956,16.985-66.026,19.819-100.916,20.48c-2.398,0.045-5.941,0.618-6.296-2.647c-0.426-3.916,3.399-2.83,5.618-3.104 c23.904-2.956,46.482-11.345,69.427-17.864C3855.638,364.13,3872.017,358.637,3890.159,359.518z"/> <path d="M1154.421,714.114c-57.502-5.426-69.066-22.417-105.1-26.19c-3.752-0.393-8.285-1.499-11.189,2.379 c-6.755,9.022-15.916,6.314-23.894,3.818c-8.143-2.547-10.726-10.347-10.73-18.529c-0.002-3.507-1.339-5.831-3.548-8.55 c-3.836-4.725-1.575-10.888,4.174-10.785c27.158,0.488-39.308-78.177-51.831-94.048c-3.499-4.435-15.231-25.428-11.144-28.261 c7.361-5.102,48.935,60.659,58.774,73.323c22.928,29.512,19.189,63.75,58,72.843c34.877,8.171,43.691,23.997,98.873,28.289 c2.961,0.23,5.992,0.073,8.178-2.119c3.699-3.708,8.509-2.307,12.79-3.321c2.121-0.503,3.663-0.303,4.404,1.693 c1.107,2.983-1.215,3.866-3.344,4.335C1170.341,710.861,1161.814,712.575,1154.421,714.114z"/> <path d="M5231.185,2817.487c-13.908-5.334-18.852-13.328-48.971-42.756c-6.344-6.198-12.327-11.906-22.314-5.18 c-4.275,2.879-11.226,3.366-15.299-1.239c-9.465-10.699-20.894-6.796-74.337-7.798c-13.997-0.262-19.281,24.297-41.375,11.48 c-10.628-6.165,4.122-11.818-15.728-19.158c-24.6-9.097-47.772-21.16-70.874-33.39c-1.903-1.007-5.961-1.335-4.167-4.826 c1.177-2.291,4.133-0.672,5.876,0.35c20.019,11.735,42.81,15.508,64.353,22.884c4.501,1.541,50.582,22.246,103.25,10.051 c25.738-5.96,48.554-3.428,68.503,14.889C5198.541,2779.722,5211.984,2801.314,5231.185,2817.487z M5123.346,2755.053 c3.64-0.168,7.279-0.336,12.619-0.583C5130.508,2749.992,5126.827,2751.879,5123.346,2755.053z"/> <path d="M4207.055,398.524c23.379,32.484,52.408,60.777,62.888,92.159c5.465,16.364,19.294,24.921,36.644,23.58 c47.179-3.646,52.682,15.883,109.37,24.552c2.759,0.422,7.732-0.745,6.844,4.367c-0.751,4.331-4.083,6.591-9.04,5.329 c-69.553-17.719-67.465-26.265-106.42-24.433c-5.135,0.242-10.702,1.219-12.527,8.234c-4.337,16.677-12.684,19.376-27.326,9.367 c-11.707-8.003-15.813-23.945-9.006-39.022c1.868-4.138,2.111-7.26,0.651-11.108c-4.262-11.228-9.002-22.187-15.929-32.115 c-12.042-17.259-21.93-35.939-34.677-52.737C4206.723,404.32,4206.16,401.702,4207.055,398.524z"/> <path d="M1098.03,1342.393c-3.846,2.416-12.866,10.12-16.936,2.822c-2.15-3.857,1.597-5.286,3.552-6.82 c13.764-10.804,28.811-19.012,45.144-25.759c27.734-11.457,38.73,8.383,66.211,19.868c31.675,13.237,39.051-3.639,56.537,16.162 c15.148,17.153,31.608,52.819,32.889,58.624c1.184,5.365-3.392,5.782-5.204,2.611c-5.828-10.198-2.96-13.386-25.279-44.324 c-7.227-10.018-18.607-13.601-29.91-16.364c-5.252-1.284-10.005-0.667-11.583,7.169c-2.147,10.668-12.041,9.68-20.169,10.091 c-14.076,0.711-20.606-19.371-17.829-27.242c1.815-5.144-0.658-7.692-5.95-9.137 C1159.733,1327.423,1142.575,1314.403,1098.03,1342.393z"/> <path d="M5193.449,658.04c-17.681-0.122-34.656-3.279-50.361-11.839c-1.892-1.031-4.766-1.842-3.858-4.388 c0.887-2.49,3.541-2.265,6.328-2.431c31.784-1.9,60.647,13.437,91.698,15.249c17.196,1.004,32.201,10.964,49.726,10.949 c5.257-0.004,10.609,4.361,15.753,7.041c5.894,3.071,12.165,4.159,18.629,5.436c15.069,2.976,51.091,27.292,98.893,34.791 c1.782,0.279,3.651,0.516,5.259,1.255c2.092,0.961,6.05,0.285,5.602,3.84c-0.417,3.289-3.921,2.36-6.301,2.609 c-49.914,5.224-100.961-51.745-123.751-27.826c-9.739,10.223-29.875,1.411-31.516-13.357c-0.701-6.311-3.406-9.049-8.557-10.893 c-3.076-1.101-6.042-2.857-9.204-3.317C5232.403,662.334,5213.114,658.629,5193.449,658.04z"/> <path d="M1627.151,1881.589c-7.16-0.119-17.43-9.162-17.122-16.071c0.63-14.163-57.893-16.648-93.503-31.185 c-10.024-4.092-15.945-12.378-23.636-18.878c-1.228-1.038-1.807-2.628-0.822-3.809c4.147-4.975,11.922,5.866,16.289,7.782 c23.233,10.193,46.575,19.869,72.328,21.694c3.558,0.252,7.236,0.985,10.54,2.298c19.642,7.805,40.51,10.091,60.896,8.162 c21.589-2.042,43.348-2.714,64.83-6.021c10.726-1.651,21.465-3.294,32.251-4.44c6.707-0.713,11.745-5.489,18.156-6.53 c1.838-0.299,4.649-1.319,5.488,1.569c0.649,2.236-1.771,2.84-3.181,3.792c-14.519,9.796-30.611,15.736-48.048,15.203 c-23.114-0.707-45.398,4.94-68.131,6.911c-3.541,0.307-5.582,1.621-6.667,5.679 C1644.621,1875.96,1635.702,1881.732,1627.151,1881.589z"/> <path d="M5565.679,1996.132c-45.515-38.063-74.332-70.499-98.251-50.517c-12.783,10.678-34.946-4.171-33.163-7.295 c3.928-6.894-0.566-4.192-3.627-3.289c-33.983,10.028-55.171,37.452-79.44,64.666c-0.544-8.351,5.474-11.155,7.938-15.806 c11.523-21.758,29.892-37.585,48.598-52.427c15.125-12.001,35.532-16.731,53.343-14.884c52.49,5.444,73.449,36.204,105.392,77.808 C5566.562,1994.512,5566.216,1994.973,5565.679,1996.132z"/> <path d="M3310.554,2284.152c48.089,25.104,60.92-19.629,123.331,30.185c4.25,3.392,8.091,7.298,12.097,10.991 c2.689,2.479,4.37,5.114,0.652,8.089c-2.861,2.29-6.067,3.23-8.524-0.181c-10.441-14.496-26.74-20.691-41.188-29.543 c-9.407-5.764-35.057-12.311-42.3,4.846c-4.827,11.432-8.702,13.447-19.506,11.243c-9.188-1.875-15.071-8.444-14.647-18.079 c0.238-5.417-3.186-5.773-6.427-7.042c-42.631-16.691-69.188,21.65-85.746,21.943c-4.518,0.08-5.487-3.668-7.427-6.64 c-2.187-3.35,0.201-4.841,2.159-6.038c18.916-11.566,38.029-22.748,60.429-26.324 C3288.935,2276.724,3298.727,2277.978,3310.554,2284.152z"/> <path d="M2947.626,250.648c15.119-1.37,28.248,3.963,41.894,5.589c11.542,1.375,20.932,8.778,28.833,18.166 c57.287,68.068,38.37,62.516,35.429,56.782c-11.13-21.704-44.572-63.006-69.147-68.076c-27.275-5.627-0.784,19.431-32.964,23.859 c-5.689,0.783-17.608-5.569-18.739-12.22c-2.062-12.12-10.432-9.755-17.294-8.301c-26.128,5.535-62.801,42.526-77.873,62.561 c-1.604,2.132-2.879,7.661-6.666,4.469c-7.21-6.076,14.224-19.981,38.844-52.613c14.393-19.077,33.04-27.113,56.289-27.474 C2933.708,253.271,2940.887,248.91,2947.626,250.648z"/> <path d="M3565.831,2208.737c-4.294,0.13-6.394,3.729-7.57,8.109c-2.491,9.28-12.523,15.59-20.425,13.472 c-6.966-1.868-12.881-12.746-10.798-20.843c1.06-4.121,0.375-6.538-3.16-9.169c-12.465-9.278-25.479-14.49-41.659-11.503 c-13.846,2.556-28.297,1.899-41.244,8.769c-3.317,1.76-5.232,0.138-6.886-2.944c-1.783-3.322-1.067-5.737,1.917-7.323 c28.926-15.371,32.91-10.501,40.131-12.406c39.111-10.313,49.844,39.112,89.498,23.265c35.184-14.061,61.706,1.24,89.506,24.764 c2.192,1.855,4.603,4.054,1.911,7.33c-2.51,3.055-4.969,1.665-7.654,0.059c-12.085-7.23-23.278-15.852-36.699-21.001 C3590.049,2200.626,3580.194,2208.302,3565.831,2208.737z"/> <path d="M4986.225,700.632c-13.997,0.33-28.543,0.829-42.309,6.469c-2.574,1.055-5.344,1.341-6.896,4.612 c-7.333,15.456-22.799,16.452-32.431,2.333c-6.166-9.038-13.636-14.776-8.025-20.457c9.998-10.123-19.988-38.346-34.477-60.248 c-27.855-42.106-12.717-51.252-10.404-41.994c7.82,31.317,39.14,51.445,55.125,84.904c6.729,14.085,18.726,21.161,33.714,18.624 c14.759-2.498,29.594-2.688,44.498-1.942c31.793,1.593,65.583-8.06,66.126-3.31c0.581,5.077-6.052,4.411-9.352,4.422 C5023.168,694.105,5005.612,702.645,4986.225,700.632z"/> <path d="M5826.279,741.988c-16.482-1.264-32.256-5.707-47.537-11.474c-20.972-7.914-42.366-12.69-64.83-12.959 c-4.188-0.05-5.433,1.747-7.317,4.772c-6.079,9.758-21.241,10.298-27.495,0.746c-4.441-6.784-9.839-13.948-2.646-22.641 c7.103-8.585-13.979-40.733-38.849-66.256c-16.881-17.325-29.079-41.872-24.937-44.928c3.572-2.636,3.648,1.951,5.303,3.291 c7.758,6.282,12.425,15.076,18.572,22.669c30.341,37.479,35.878,29.039,46.096,59.772c15.087,45.38,45.524,27.928,75.542,42.022 c18.527,8.699,38.355,13.462,57.624,19.92c3.564,1.194,7.114,1.359,10.767,0.761c2.416-0.396,6.133-1.745,6.265,1.697 C5832.997,743.475,5828.832,742.019,5826.279,741.988z"/> <path d="M2437.322,1953.413c-38.919,5.872-75.969,28.678-77.632,20.238c-0.527-2.675,1.303-5.258,3.969-5.721 c24.968-4.335,46.626-17.777,70.394-25.375c7.89-2.523,37.513-1.743,66.252,16.477c40.634,25.762,44.038,82.278,57.884,97.142 c2.175,2.335,2.299,4.816-0.039,6.575c-5.267,3.961-2.951-2.903-35.115-57.505c-6.681-11.342-16.523-19.209-24.882-28.691 c-2.689-3.051-5.375-2.284-8.779-0.907c-32.921,13.319-20.169-17.948-33.346-19.773 C2449.913,1955.028,2443.786,1954.26,2437.322,1953.413z"/> <path d="M2507.567,1737.884c-16.924-4.239-34.023-7.183-51.304-9.271c-3.734-0.451-6.731-0.141-9.305,3.658 c-4.632,6.837-17.86,10.874-23.895,8.082c-6.538-3.025-12.127-17.453-9.031-25.727c1.423-3.803,0.538-5.191-2.341-6.85 c-28.759-16.569-29.675-9.573-82.433-36.781c-9.59-4.946-14.49-14.052-21.295-21.488c-2.221-2.427-0.35-6.486,3.4-4.068 c17.919,11.555,39.704,31.099,79.582,43.994c18.073,5.845,35.404,14.618,52.126,23.798c11.652,6.397,24.206,6.912,36.387,9.91 c11.779,2.899,66.337,20.787,98.192,13.988c4.113-0.878,6.832,0.044,6.927,4.156c0.117,5.081-4.239,2.896-6.5,2.689 C2559.717,1742.29,2579.033,1755.784,2507.567,1737.884z"/> <path d="M604.503,1684.739c-16.21-0.597-30.258,6.548-44.528,12.729c-15.624,6.767-21.757-0.63-15.213-4.897 c22.269-14.52,56.456-29.329,78.013-13.756c36.218,26.163,50.673-18.534,101.07,2.274c10.396,4.292,20.587,9.11,30.703,14.034 c2.506,1.22,7.514,2.059,5.152,6.544c-1.94,3.684-6.052,5.946-10.212,3.21c-13.274-8.726-28.845-11.644-43.151-17.697 c-18.874-7.986-33.955-1.469-40.016,18.268c-2.181,7.103-14.587,14.901-22.778,14.317c-6.323-0.451-14.766-8.786-16.01-15.805 C624.469,1686.665,622.754,1685.239,604.503,1684.739z"/> <path d="M5127.567,1112.999c-33.919-0.842-54.267-40.601-75.975-70.167c-3.785-5.155-7.211-8.771-15.247-5.217 c-14.358,6.351-21.263-10.079-26.772-12.132c-6.516-2.428-5.628-6.568-0.953-9.334c5.924-3.504,3.508-6.05-0.073-8.549 c-24.086-16.804-65.308-6.166-101.572-30.839c-4.095-2.786-0.764-5.651,1.756-5.164c20.441,3.952,42.19,2.523,60.609,14.833 c4.361,2.915,9.61,3.073,14.59,4.017c27.155,5.154,23.579,11.035,41.622,17.786c18.714,7.002,14.06,15.663,23.641,21.344 c20.56,12.19,17.917,23.542,55.244,59.526C5112.414,1096.791,5119.877,1105.012,5127.567,1112.999z"/> <path d="M5831.713,2216.487c28.577,8.148,38.887,16.305,69.68,6.157c30.735-10.129,48.432,6.046,75.771,36.078 c2.633,2.893,5.177,5.664,1.313,9.185c-3.584,3.264-6.235,0.221-8.204-2.157c-9.585-11.583-20.949-21.031-33.122-29.79 c-5.713-4.11-10.741-6.845-17.923-4.749c-10.191,2.974-24.313-1.589-24.139,11.524c0.076,5.679-10.641,12.709-16.975,12.895 c-6.297,0.185-15.986-6.881-16.738-14.598c-1.103-11.3-10.643-6.926-14.143-8.402c-23.46-9.892-36.504,12.058-57.361,31.591 c-7.454,6.98-14.023-2.596-9.372-7.794c12.302-13.745,23.24-29.008,40.533-37.36 C5824.39,2217.447,5827.819,2216.472,5831.713,2216.487z"/> <path d="M5798.26,1557.145c27.06,3.105,49.557,7.397,68.653,25.266c14.403,13.478,32.539,23.023,45.958,38.094 c1.361,1.528,8.017,4.672,4.435,8.172c-3.695,3.61-35.673-25.772-38.516-28.267c-10.715-9.405-22.661-17.038-34.16-25.283 c-10.675-7.654-19.645-5.462-27.023,5.103c-8.128,11.638-17.036,13.482-27.782,6.24c-4.593-3.095-7.181-9.351-14.215-8.765 c-19.598,1.631-21.753,5.885-76.016,46.542c-1.001,0.75-7.455,6.649-10.5,2.524c-2.144-2.905,1.449-4.443,3.06-5.835 c18.428-15.929,36.204-32.778,55.791-47.149C5763.309,1562.515,5782.698,1560.257,5798.26,1557.145z"/> <path d="M2807.455,1707.78c23.697-1.847,36.607,7.952,48.317,16.768c12.531,9.434,79.019,65.486,71.234,72.31 c-2.648,2.321-4.521-0.78-6.224-2.401c-21.458-20.412-5.588,3.425-58.965-55.955c-3.994-4.443-18.182-15.307-21.807-12.872 c-5.624,3.779,8.085,15.936-6.225,11.653c-2.985-0.894-5.632,1.017-8.444,1.62c-8.979,1.926-17.72-1.819-21.278-10.335 c-2.364-5.657-5.353-5.397-10.176-4.202c-47.859,11.862-52.752,23.81-91.981,41.809c-2.287,1.049-5.17,2.793-6.513-0.446 c-0.921-2.22,0.267-5.012,3.215-6.014c13.624-4.627,24.138-14.874,37.086-20.626c10.683-4.746,20.583-10.774,30.594-16.687 C2781.153,1713.623,2797.595,1709.668,2807.455,1707.78z"/> <path d="M5411.769,1060.416c-17.691-9.57-27.477-25.278-35.623-41.893c-4.512-9.202-10.775-17.275-15.075-26.522 c-2.672-5.746-7.915-5.797-13.051-5.114c-16.33,2.172-27.836-2.647-31.895-16.894c-1.907-6.694-5.604-7.298-9.377-6.977 c-24.636,2.094-49.217-5.746-73.914,0.01c-5.541,1.291-12.178,1.7-18.447-3.853c35.398-1.202,68.857-9.371,103.192-5.925 c16.346,1.641,27.805,11.282,39.869,20.363c23.513,17.698,36.06,43.868,51.712,67.614 C5412.972,1047.009,5408.512,1054.042,5411.769,1060.416z"/> <path d="M5132.197,866.326c-19.375-8.102-36.821-19.883-55.561-29.214c-3.767-1.876-3.011-0.256-4.83,1.825 c-12.49,14.292-35.635,9.055-37.292-6.423c-1.174-10.963-6.536-13.165-54.393-20.831c-27.316-4.375-58.926-20.899-58.209-28.674 c0.384-4.178,6.039-7.362,8.799-1.467c2,4.272,2.007,5.234,52.214,22.602c7.183,2.485,14.72,5.062,22.188,5.368 c14.563,0.597,27.914,7.745,42.677,6.86c4.677-0.28,9.394,1.392,13.419,4.029c12.488,8.181,26.929,12.418,39.665,20.237 c19.475,11.955,52.46,21.259,74.542,26.529c2.07,0.494,4.688,0.693,3.876,3.864c-0.543,2.12-2.519,2.413-4.404,2.247 C5153.505,871.4,5151.575,874.429,5132.197,866.326z"/> <path d="M957.767,399.516c4.852,6.679,6.3,10.259-4.251,10.824c-7.146,0.382-14.031,5.966-21.743,1.557 c-22.64-12.942-9.721-23.697-25.091-19.422c-19.737,5.49-42.944,30.163-54.319,41.04c-2.698,2.58-5.88,5.711-9.335,2.632 c-4.079-3.636,0.212-6.284,2.493-8.904c30.756-35.336,41.555-40.156,52.483-42.164c18.99-3.489,37.366-5.257,56.491,3.029 c41.449,17.958,29.761,2.494,72.471,71.885c2.87,4.662-0.663,9.244-5.632,3.053c-14.293-17.812-30.317-34.183-43.7-52.766 C973.326,404.297,967.899,399.503,957.767,399.516z"/> <path d="M4556.583,1129.21c0-34.438,3.248-81.747-12.677-86.781c-3.536-1.118-9.558-8.986-8.805,3.048 c0.152,2.436-2.466,4.316-4.53,3.529c-9.682-3.689-22.587,0.044-28.624-12.206c-2.197-4.461-15.371-6.63-4.722-19.259 c9.987-11.844-0.456-19.408-12.25-18.958c-20.863,0.795-42.252-1.629-61.43,9.753c-2.993,1.776-6.106,2.355-9.376,0.996 c-19.565-8.135,51.344-38.605,84.971-15.185c9.252,6.444,28.154,32.372,42.364,38.476c13.487,5.793,19.429,17.36,21.281,30.685 c2.088,15.024,3.583,30.215,2.563,45.516C4564.84,1116.431,4563.672,1123.549,4556.583,1129.21z"/> <path d="M4182.167,762.358c-62.911,4.193-55.705-15.123-103.965-13.37c-3.39,0.123-5.954,0.47-7.981,4.082 c-3.927,6.998-12.435,10.927-13.123,20.399c-0.14,1.931-6.4,8.058-8.649,6.093c-2.038-1.78,0.726-5.127,2.324-7.403 c10.939-15.58-16.146-0.928-22.27-31.185c-2.424-11.979-4.751-11.628-59.339-42.46c-25.254-14.264-38.947-36.715-30.979-40.07 c4.425-1.863,3.557,3.12,4.693,5.329c4.373,8.502,11.981,13.596,19.858,18.087c4.446,2.536,9.134,4.828,12.703,8.354 c15.503,15.32,35.809,23.377,53.862,34.575c21.016,13.036,58.556,14.229,78.5,20.494c20.527,6.448,42.083,7.761,62.975,12.418 C4174.169,758.458,4178.056,757.451,4182.167,762.358z"/> <path d="M2364.936,993.866c33.871,23.112,55.549-2.793,90.918,4.126c16.739,3.275,33.457,6.514,49.608,12.107 c3.101,1.074,8.4,1.312,5.787,6.682c-1.904,3.913-5.445,4.964-10.114,2.699c-20.907-10.14-43.951-10.986-66.344-14.567 c-7.198-1.151-27.717,4.442-28.626,13.767c-1.114,11.43-10.395,13.553-17.867,16.817c-7.793,3.404-21.574-10.778-18.946-20.076 c2.324-8.217-1.962-11.293-7.018-15c-13.719-10.059-29.732-10.231-45.736-10.967c-11.954-0.55-23.865-1.906-35.867-1.216 c-4.107,0.236-8.667,0.187-8.811-5.441c-0.154-6.049,4.886-3.922,8.08-4.176C2308.105,976.393,2341.771,978.058,2364.936,993.866z"/> <path d="M4192.548,377.481c-2.734-0.212-4.299,0.794-5.679,2.859c-10.019,14.988-36.876,8.665-34.885-12.001 c1.308-13.558-14.795-13.543-66.075-25.569c-9.088-2.131-51.23-13.283-47.041-21.559c1.881-3.716,4.483-1.166,6.11,0.395 c8.11,7.781,63.164,15.36,105.693,30.479c18.07,6.424,35.181,15.104,53.451,20.818c8.994,2.813,27.627,19.598,50.635,26.96 c8.653,2.769,23.772,18.595,35.505,22.951c2.458,0.913,5.148,2.493,3.781,5.513c-1.661,3.666-4.139,0.597-6.366,0.049 c-19.024-4.681-33.727-14.573-81.462-45.019C4201.893,380.602,4197.169,378.75,4192.548,377.481z"/> <path d="M3104.882,1975.542c-12.872-0.049-23.935,2.946-34.144,9.093c-4.83,2.908-9.77,1.7-12.73-2.079 c-3.059-3.906,1.87-6.46,4.164-8.742c16.742-16.662,51.781-16.723,68.741,0.054c11.211,11.09,25.834,15.35,38.986,10.161 c33.331-13.15,57.681,9.923,82.815,35.215c1.325,1.334,3.764,3.131,1.447,5.407c-1.971,1.936-4.323,0.72-5.875-0.749 c-5.358-5.072-29.213-34.276-58.038-31.824c-33.876,2.882-14.843,16.408-35.012,22.103c-7.508,2.12-12.502-1.356-18.678-5.439 c-19.415-12.837,14.71-26.577-27.248-33.786C3107.609,1974.664,3105.729,1975.416,3104.882,1975.542z"/> <path d="M3578.156,735.928c17.628,3.533,33.212,10.357,46.624,21.3c32.546,26.556,29.593,38.503,49.376,34.608 c22.242-4.379,32.325-11.565,106.557,10.803c7.589,2.287,2.34,10.568-3.048,7.805c-15.233-7.81-32.103-8.764-48.453-12.052 c-15.326-3.083-29.483,0.272-43.705,5.348c-13.737,4.904,4.068,18.772-14.95,19.922c-16.272,0.984-23.706-12.106-34.913-18.974 c-3.834-2.35-2.699-7.798,0.809-10.28c4.727-3.345,3.275-6.793,1.432-10.312c-11.208-21.403-28.302-34.936-52.807-36.922 c-5.826-0.472-7.276-3.375-9.075-7.287C3574.701,737.06,3575.889,735.938,3578.156,735.928z"/> <path d="M5286.828,1658.875c-27.787-6.689-33.723-7.021-36.361,2.63c-3.908,14.292-28.001,13.185-32.426-3.356 c-2.165-8.094-4.573-7.842-38.46-4.217c-21.596,2.31-58.281,12.335-83.75-0.913c-5.743-2.987-1.899-8.118,2.6-6.24 c23.524,9.815,40.357,3.421,122.977-5.004c2.527-0.258,5.181-1.009,7.578-0.532c19.788,3.943,40.295,3.56,59.685,9.739 c17.244,5.496,31.953,5.968,80.439,12.186c1.66,0.213,4.123,0.038,4.432,2.089c0.405,2.675-1.985,3.843-4.17,4.011 C5329.971,1672.291,5331.432,1669.614,5286.828,1658.875z"/> <path d="M3741.115,2182.736c30.366,41.615,70.341,47.445,95.764,65.098c21.082,14.638,41.39,3.958,126.003-45.759 c13.591-7.986,15.638-18.926,19.996-13.667c2,2.414-0.558,3.681-2.154,5.093c-39.031,34.529-57.384,38.489-97.539,64.65 c-9.113,5.938,1.279,9.039-8.028,18.931c-4.365,4.64-7.361,11.488-15.586,9.536c-6.813-1.617-16.237-12.187-16.364-19.266 c-0.193-10.84-1.172-0.963-84.988-57.489c-7.342-4.952-12.405-12.214-18.86-18.064c-1.692-1.533-2.811-4.42-1.244-7.023 C3738.581,2184.002,3739.734,2183.641,3741.115,2182.736z"/> <path d="M1799.719,1900.241c33.168,29.671,56.586-13.384,97.664,34.732c21.12,24.737,26.376,26.328,19.987,31.03 c-3.058,2.251-5.87,0.541-7.338-2.092c-7.061-12.661-19.081-20.942-27.809-32.001c-5.498-6.967-14.318-13.195-36.709-10.831 c-5.379,0.568-10.584,0.41-12.659,8.291c-1.846,7.014-12.887,9.453-21.767,6.842c-8.196-2.41-13.531-9.63-13.161-17.809 c0.531-11.721-6.454-19.665-18.575-19.065c-28.528,1.412-39.184,10.183-44.493,12.785c-4.848,2.376-14.467-2.735-7.481-10.967 C1746.478,1878.651,1780.286,1882.858,1799.719,1900.241z"/> <path d="M5208.659,2495.488c-12.522,22.836-42.229,12.796-70.427,27.882c-9.292,4.971-20.468,7.336-26.896,17.813 c-5.547,9.04-24.001,12.84-34.963,9.416c-10.526-3.287,11.492-16.023-8.876-21.489c-25.526-6.851-71.913-37.632-72.94-38.592 c-1.457-1.362-4.526-2.46-3.09-4.922c3.902-6.694,12.405,4.26,18.36,7.08c15.445,7.314,31.118,13.926,47.813,17.911 c17.662,4.215,28.069,17.268,67.361,6.836c20.983-5.571,42.517-8.931,63.21-15.907 C5194.837,2499.281,5201.535,2496.682,5208.659,2495.488z"/> <path d="M3510.074,276.853c0.784,0.557,1.777,1.01,2.426,1.761c20.519,23.726,47.411,40.696,68.18,64.05 c8.052,9.054,16.312,16.02,28.675,17.697c4.749,0.644,9.572,1.901,13.908,0.03c16.555-7.146,20.783-5.224,98.361-16.413 c8.536-1.231,10.532-1.071,10.615,1.47c0.202,6.245-54.476,11.266-60.713,12.143c-16.312,2.296-31.48,8.499-46.884,13.899 c-1.879,0.659-2.623,1.403-3.332,3.418c-3.403,9.663-12.461,16.421-19.507,15.085c-7.696-1.459-18.384-12.851-18.018-21.063 c0.434-9.748-2.654-17.95-47.798-53.663c-11.171-8.837-21.006-18.985-27.219-32.1 C3507.702,280.918,3506.195,278.457,3510.074,276.853z"/> <path d="M5158.535,2662.199c-4.978-0.993-10.12-1.506-14.882-3.129c-3.883-1.324-8.044-4.073-2.603-8.455 c5.161-4.156,1.533-7.097-1.05-9.814c-32.75-34.456-19.93-11.453-61.32-53.837c-3.879-3.976-6.053-6.872-0.378-11.746 c3.556-3.053,5.42,0.086,6.48,2.708c2.798,6.925,8.573,10.989,14.471,14.326c53.284,30.148,57.827,49.637,84.372,37.134 c20.166-9.498,22.975-1.597,61.663-16.983c2.133-0.848,4.791-3.811,6.535-0.649c1.409,2.557-1.758,4.452-3.594,6.069 c-6.191,5.453-17.131,5.816-46.768,14.122c-3.653,1.023-9.667,1.087-6.69,8.143c0.639,1.515-0.519,3.181-2.001,3.256 c-11.662,0.589-16.473,12.242-26.16,16.067C5163.942,2660.462,5161.685,2662.51,5158.535,2662.199z"/> <path d="M1818.049,2024.388c14.228,11.81,32.2,10.576,46.313,1.521c13.376-8.581,27.176-8.016,41.562-3.167 c12.069,4.069,23.84,8.74,34.607,15.574c2.088,1.326,6.35,2.804,4.446,6.2c-2.09,3.726-5.792,3.367-9.409,0.907 c-23.735-16.142-65.55-23.682-82.614,5.741c-13.564,23.388-38.582,3.198-37.784-11.165c0.441-7.935-12.33-21.224-22.256-21.601 c-12.559-0.477-25.411-1.831-37.164,5.113c-4.574,2.703-9.958,1.742-12.279-3.009c-2.806-5.743,3.04-7.182,6.729-9.018 C1767.397,2002.926,1795.161,2005.39,1818.049,2024.388z"/> <path d="M4930.626,514.219c0.759-4.227-0.181-7.605-2.377-11.282c-24.584-41.178-88.263-41.637-81.471-53.233 c1.912-3.264,3.348-2.265,41.164,13.607c13.986,5.871,33.362,13.777,45.316,32.135c16.161,24.82,51.851,12.935,63.885,11.919 c29.116-2.459,56.194,10.93,80.791,18.657c5.284,1.66,4.181,6.488-1.35,7.284c-3.136,0.451-5.517-1.569-8.239-2.462 c-31.388-10.296-80.746-26.001-101.768-0.187C4954.203,545.852,4926.843,535.291,4930.626,514.219z"/> <path d="M1314.066,1889.246c-7.272-0.513-12.106-5.746-13.695-10.336c-5.508-15.917-20.177-21.396-31.855-29.94 c-15.186-11.111-32.574-18.751-49.216-27.511c-6.264-3.298-10.686-8.694-16.031-13.027c-1.278-1.036-2.629-2.874-1.194-4.732 c1.815-2.35,3.257-0.31,4.334,0.888c18.597,20.675,46.311,21.244,85.775,46.308c14.612,9.28,31.105,10.615,46.259,6.001 c23.741-7.229,86.683-15.753,98.934-21.205c2.529-1.125,6.362-3.437,7.648-0.258c2.96,7.313-55.353,17.546-76.097,23.348 c-10.121,2.831-19.909,6.886-29.771,10.591c-3.629,1.363-5.302,4.743-6.963,8.061 C1328.371,1885.075,1320.895,1887.022,1314.066,1889.246z"/> <path d="M2277.285,1941.532c-9.38,3.75-17.944,9.188-28.152,10.04c-21.46,1.792-42.156,7.038-62.545,13.705 c-19.745,6.456-22.661,5.828-24.852,13.621c-1.696,6.034-7.865,12.51-16.615,11.342c-6.937-0.926-17.054-10.86-16.937-17.891 c0.284-17.054-32.382-26.536-75.631-51.687c-7.219-4.198-12.18-10.213-17.63-15.998c-2.739-2.907-3.123-6.087,0.689-8.1 c5.683-3,0.854,4.139,10.152,10.196c50.377,32.81,49,24.798,79.032,45.928c11.571,8.141,24.983,10.183,38.197,6.451 c25.948-7.327,52.53-10.004,79.092-13.274c7.503-0.924,14.923-2.924,22.216-5.01 C2268.617,1939.62,2272.694,1938.975,2277.285,1941.532z"/> <path d="M5478.148,778.285c-3.276-1.112-6.31,0.66-9.507,1.103c-13.659,1.89-25.064-7.224-24.206-21.06 c0.641-10.336-4.425-11.608-12.24-11.503c-27.186,0.365-49.268,13.068-70.03,28.946c-3.056,2.336-6.348,8.354-10.384,2.879 c-1.735-2.356-0.781-4.234,1.104-5.591c58.605-42.211,65.397-38.234,82.355-33.389c28.759,8.216,78.897,12.433,97.851,58.442 c15.958,38.737,19.567,39.382,15.956,41.302c-3.663,1.948-4.401-2.878-5.208-5.243c-7.302-21.416-20.353-39.181-34.714-56.248 c-8.113-9.64-30.128-18.662-25.099-5.831C5487.085,779.897,5482.642,778.568,5478.148,778.285z"/> <path d="M2038.926,987.301c9.828-1.429,20.088-5.339,31.031-5.999c31.111-1.876,62.373-6.955,93.299-3.942 c43.492,4.236,54.012,14.179,94.909,25.864c10.831,3.095,17.852,14.164,30.215,13.918c1.944-0.039,3.141,2.194,2.468,4.065 c-1.254,3.482-2.422,3.604-49.498-13.711c-21.529-7.918-56.855-28.279-63.513-10.78c-6.28,16.507-31.59,10.543-32.612-4.343 c-0.556-8.105-4.698-8.165-10.607-8.557c-18.43-1.221-35.946,4.4-53.877,6.801c-2.718,0.364-52.093,8.439-52.063,0.044 C2028.695,985.608,2033.686,985.492,2038.926,987.301z"/> <path d="M4291.78,2423.781c-8.137,0.07-16.333-6.437-16.736-14.73c-0.725-14.896-51.988-24.416-79.318-37.129 c-16.165-7.521-23.464-15.354-19.562-18.236c1.485-1.097,2.586,0.074,3.561,1.192c14.227,16.317,35.224,17.466,53.884,23.527 c10.983,3.567,22.299,5.878,32.852,10.986c14.148,6.849,29.353,5.192,41.801-2.276c26.008-15.603,69.038-28.639,86.451-43.326 c1.856-1.566,4.441-4.059,6.517-1.401c4.757,6.094-37.252,28.177-44.605,31.621c-14.168,6.636-26.528,16.4-40.933,22.608 c-3.793,1.635-6.037,5.217-6.615,10.347C4308.017,2416.378,4299.607,2423.713,4291.78,2423.781z"/> <path d="M4117.822,1520.485c43.663,21.725,53.852-31.271,120.498,9.811c8.502,5.241,1.207,13.655-6.08,8.747 c-11.437-7.705-24.82-10.079-37.563-14.285c-9.659-3.189-18.757-1.694-27.602,2.173c-4.194,1.834-10.723,3.802-3.19,10.03 c3.456,2.857,1.043,4.22-1.962,4.805c-4.971,0.966-8.109,4.693-11.727,7.673c-10.225,8.421-23.017,4.627-25.486-8.568 c-1.348-7.203-5.576-8.87-10.933-11.686c-22.488-11.82-43.194-1.067-64.35,4.229c-7.21,1.805-15.435,8.15-17.328,1.303 c-1.024-3.704,0.432-6.151,4.376-7.336c7.298-2.193,14.363-5.32,21.768-6.96C4084.315,1514.647,4100.48,1511.855,4117.822,1520.485 z"/> <path d="M3922.711,1507.018c-4.411,0.796-6.581,3.351-7.547,7.905c-2.204,10.388-11.9,12.145-19.774,14.761 c-6.033,2.005-14.298-5.301-15.966-14.737c-1.159-6.562-4.775-7.905-9.684-9.71c-17.238-6.337-35.134-9.207-53.336-9.537 c-16.641-0.301-32.044-5.731-47.81-9.778c-7.781-1.998-3.946-8.315,3.66-5.378c13.726,5.3,48.584,10.528,66.32,10.825 c25.403,0.424,65.854,12.166,87.192,6.954c29.041-7.093,68.47,3.225,104.345-10.383c2.423-0.919,4.423-0.923,5.146,1.797 c0.589,2.219-1.306,3.013-3.109,3.553c-8.28,2.478-15.996,6.264-25.008,6.976C3984.449,1502.056,3966.32,1499.15,3922.711,1507.018 z"/> <path d="M3010.376,2150.503c-18.66-3.896-37.445,3.345-56.671,3.05c-10.199-0.156-18.396,6.162-26.681,11.414 c-2.203,1.396-3.215,3.361-3.9,6.099c-6.68,26.703-34.777,15.777-34.175-3.3c0.623-19.727-38.754-26.464-57.567-33.432 c-24.059-8.911-34.884-7.734-30.668-16.782c1.139-2.446,2.654-1.698,4.342-0.826c31.384,16.204,56.887,12.403,78.285,30.19 c13.363,11.108,28.539,12.672,43.706,5.139c19.769-9.819,40.649-9.622,61.736-9.472c29.997,0.213,30.691-3.235,31.21,3.11 C3020.318,2149.665,3018.189,2150.74,3010.376,2150.503z"/> <path d="M3170.591,2581.11c-3.107,5.848-7.091,4.781-10.969,1.877c-9.147-6.85-19.534-11.001-30.139-14.934 c-10.785-3.999-34.789-4.499-36.489,10.621c-1.571,13.975-31.609,24.066-30.935,1.218c0.23-7.795-3.724-10.286-9.174-13.716 c-20.625-12.979-41.847-8.163-63.211-3.132c-4.574,1.078-11.197,6.236-13.237-0.041c-2.085-6.416,6.708-5.513,10.708-7.629 c21.202-11.219,50.598-13.809,72.225,1.753c12.306,8.855,25.66,9.898,40.171,3.814c26.741-11.212,50.134-3.091,68.653,16.833 C3169.129,2578.78,3169.814,2580.016,3170.591,2581.11z"/> <path d="M5471.775,2359.233c-1.031-13.56-39.244-28.096-76.757-49.244c-6.603-3.722-12.662-8.418-18.914-12.749 c-2.374-1.645-3.615-3.945-1.335-6.399c1.807-1.945,3.052-0.082,4.234,1.311c13.055,15.395,31.984,20.803,49.422,28.509 c12.645,5.587,25.417,10.696,37.306,17.922c13.506,8.208,29.489,9.125,43.278,4.942c24.181-7.336,76.88-12.867,98.858-25.682 c1.972-1.149,4.997-3.99,6.481-0.682c3.688,8.213-44.179,17.957-98.858,37.039c-5,1.744-9.293,3.379-10.95,10.314 C5499.656,2384.962,5472.978,2375.035,5471.775,2359.233z"/> <path d="M5366.817,2159.061c19.729,8.076,39.321,7.624,59.412,1.104c20.705-6.72,48.537,5.914,63.659,18.254 c2.89,2.359,8.074,4.585,4.262,9.281c-2.869,3.534-7.13,2.706-10.618-0.446c-10.546-9.531-23.941-13.44-36.665-18.778 c-9.092-3.815-31.355-4.74-31.262,9.217c0.07,10.51-18.252,27.982-31.896,8.534c-13.536-19.294-27.543-24.15-49.56-17.125 c-13.789,4.4-28.442,6.58-39.965,16.533c-5.315,4.591-10.671-4.755-4.266-7.365 C5300.805,2173.832,5348.575,2151.594,5366.817,2159.061z"/> <path d="M4866.575,1586.811c11.065,4.434,20.573,9.005,28.695,15.561c17.787,14.356,37.286,26.401,54.013,42.299 c9.513,9.042,22.758,11.718,35.561,5.431c23.609-11.593,49.083-14.88,74.684-17.775c20.576-2.328,23.303-6.319,24.542-1.536 c1.194,4.61-2.989,6.631-3.989,6.644c-16.919,0.222-32.616,7.747-49.274,8.688c-16.591,0.937-30.759,8.198-45.407,14.463 c-2.896,1.238-4.849,3.44-5.604,7.317c-1.526,7.845-13.622,15.741-20.345,14.237c-7.828-1.75-16.256-13.569-14.16-21.427 c1.997-7.484-1.5-11.828-6.481-15.903c-21.937-17.948-43.2-36.77-67.293-51.926 C4869.724,1591.756,4867.405,1591.126,4866.575,1586.811z"/> <path d="M3779.142,2538.047c38.293,19.012,46.12-13.143,87.203,9.936c19.601,11.01,22.224,12.132,19.194,16.734 c-2.383,3.619-6.646,5.662-11.321,2.059c-7.027-5.417-15.716-7.501-23.483-11.41c-8.855-4.457-18.09-5.093-27.626-4.637 c-6.337,0.303-11.994,0.344-12.653,9.568c-0.853,11.932-36.067,18.559-32.177-3.742c1.198-6.87-2.444-10.025-7.754-12.554 c-7.277-3.465-14.577-5.884-22.983-5.65c-20.62,0.574-19.01-4.817-51.891,0.055c-6.088,0.902-8.629-6.92-1.208-7.49 C3729.154,2528.245,3755.473,2526.295,3779.142,2538.047z"/> <path d="M3414.667,2244.604c-8.298-0.369-15.489,1.811-22.174,7.225c-9.87,7.993-21.234,14.021-30.824,22.461 c-1.341,1.18-2.949,2.954-4.598,1.453c-2.206-2.007-0.377-4.18,1.186-5.506c14.949-12.688,29.731-25.654,47.698-34.09 c2.209-1.037,5.173-1.936,7.349-1.329c14.574,4.065,29.727,0.243,44.385,3.729c12.116,2.882,26.879-9.616,43.923,3.346 c10.78,8.198,20.637,17.279,28.721,28.149c1.455,1.955,5.177,4.236,1.621,7.27c-2.552,2.177-5.375,1.351-7.934-0.63 c-7.456-5.772-15.303-11.099-22.317-17.362c-11.521-10.287-27.016-18.442-36.955-6.188c-10.322,12.727-23.654,14.991-36.652,9.031 c-2.43-1.115-1.6-2.625-1.347-4.362C3428.545,2245.476,3427.758,2244.638,3414.667,2244.604z"/> <path d="M2586.715,2124.138c32.497,36.348,36.305-23.699,129.586,16.013c2.359,1.004,6.377,1.444,4.384,5.484 c-1.504,3.047-4.898,3.509-7.584,1.677c-14.806-10.1-32.071-11.056-48.936-13.203c-14.313-1.822-27.11,3.388-39.241,10.357 c-1.411,0.811-2.872,2.554-3.185,4.094c-1.869,9.211-10.393,16.943-18.357,16.272c-8.05-0.678-14.964-9.63-15.122-19.457 c-0.257-16.043-12.46-24.031-23.586-31.091c-8.567-5.436-19.629-7.076-29.716-9.929c-6.362-1.799-12.921-1.227-19.448,0.007 c-3.74,0.707-8.157,0.172-8.521-4.425c-0.388-4.91,4.468-3.504,7.32-3.898C2516.481,2095.74,2558.811,2092.926,2586.715,2124.138z"/> <path d="M2278.367,2086.416c21.376-17.061,44.299-26.925,67.969-34.867c10.852-3.641,22.76-0.104,33.313,2.276 c23.081,5.207,45.583,11.652,62.575,31.468c14.538,16.954,27.966,34.097,37.449,54.281c0.729,1.552,2.693,3.091,0.697,4.679 c-2.654,2.112-3.546-0.621-4.909-2.198c-19.963-23.089-36.203-52.26-55.236-67.022c-17.697-13.727-17.229,13.515-35.688,7.824 c-7.641-2.356-12.784-8.356-13.358-15.631c-0.611-7.749-4.417-7.788-9.871-7.557c-24.596,1.041-46.312,10.924-67.664,21.943 C2289.547,2083.728,2285.874,2086.964,2278.367,2086.416z"/> <path d="M4072.651,2205.637c1.01,0.484,55.417,26.016,63.185,31.017c17.644,11.359,22.937,24.553,44.532,13.918 c18.499-9.111,7.172-12.402,59.128-36.338c10.532-4.852,21.44-9.087,30.874-16.116c1.714-1.278,3.775-2.056,5.823-0.86 c0.404,2.481-0.848,3.737-2.378,4.817c-15.114,10.672-29.949,21.918-47.097,29.155c-14.2,5.993-23.703,17.771-35.484,26.724 c-4.951,3.763,2.686,9.83-5.864,17.612c-4.353,3.961-7.408,10.583-15.124,8.713c-7.507-1.82-15.147-10.482-15.848-18.434 c-0.337-3.823-1.2-7.027-4.201-9.612c-9.372-8.073-18.721-16.336-30.087-21.393c-15.276-6.796-29.21-15.945-43.893-23.763 C4074.299,2210.056,4072.356,2209.114,4072.651,2205.637z"/> <path d="M3641.112,2586.326c-9.729,0.324-14.259-3.896-15.27-9.862c-1.547-9.117-7.67-11.088-14.985-12.556 c-30.73-6.164-68.339-12.495-83.355-20.467c-4.988-2.648-1.85-7.159,2.65-4.595c9.653,5.496,20.684,6.003,31.046,8.9 c21.177,5.921,43.136,3.532,64.574,8.097c15.729,3.35,32.744,3.78,49.524,0.454c17.462-3.46,35.504,1.043,53.291-1.156 c7.875-0.973,15.969-0.345,23.314-4.139c2.034-1.051,4.691-2.126,5.7,0.251c1.304,3.072-1.609,4.405-4.119,5.058 c-9.499,2.471-19.086,4.505-28.895,5.318c-63.167,5.236-66.752,3.27-70.093,15.524 C3652.814,2583.318,3644.829,2585.137,3641.112,2586.326z"/> <path d="M5767.735,2437.963c11.265,0,29.115-2.606,48.996,15.524c27.023,24.644,39.62-19.379,94.501,8.435 c5.631,2.854,3.343,8.068-3.488,8.1c-23.119,0.112-30.153-10.785-51.213-6.601c-5.665,1.126-9.9,3.577-11.582,9.814 c-2.177,8.076-8.442,12.238-16.325,11.56c-7.812-0.672-12.678-5.702-14.273-14.031c-1.595-8.331-17.262-18.291-27.951-18.955 c-41.408-2.571-43.94-2.339-43.906-7.784c0.029-4.656,3.997-5.635,7.78-5.759c5.814-0.19,11.639-0.05,17.46-0.05 C5767.735,2438.132,5767.735,2438.047,5767.735,2437.963z"/> <path d="M4580.832,704.527c-3.986,1.188-7.523-0.349-8.573-4.474c-3.022-11.881,50.15-16.285,78.697,26.621 c15.172,22.803,37.676-8.473,70.748,24.398c35.41,35.194,33.98,35.285,33.24,38.026c-0.756,2.802-4.817,5.759-7.489-0.304 c-6.192-14.057-17.472-23.766-28.207-34.141c-11.313-10.934-24.771-10.752-38.719-9.659c-11.025,0.864,0.684,10.864-9.347,12.141 c-7.464,0.95-15.075,3.802-22.334-0.464c-8.918-5.24-12.285-13.799-10.048-24.524c1.231-5.909-9.3-21.566-16.198-23.869 c-1.693-0.566-3.569-0.604-5.367-0.835C4608.69,706.348,4596.95,699.723,4580.832,704.527z"/> <path d="M5441.784,2353.258c-6.618,14.071-72.307,42.003-76.495,65.822c-1.466,8.337-8.479,15.229-17.149,18.068 c-6.388,2.092-10.736-2.725-14.851-7.018c-7.795-8.131,5.502-11.276-17.996-27.778c-25.945-18.219-42.847-23.399-65.445-36.591 c-3.689-2.153-1.319-7.224,2.559-4.671c23.984,15.788,57.188,23.418,73.012,37.984c13.244,12.191,28.221,11.327,41.341-0.859 c15.404-14.309,33.312-25.117,52.169-34.281c6.499-3.157,13.726-4.958,18.261-11.283c0.818-1.141,2.038-2.189,3.617-1.323 C5441.291,2351.594,5441.423,2352.503,5441.784,2353.258z"/> <path d="M5029.113,1889.477c-3.86,13.506-26.001,9.525-28.167-5.255c-2.152-14.673-31.456-12.329-49.373-15.77 c-16.827-3.231-51.704-3.901-50.336-10.405c0.721-3.428,4.293-2.069,6.465-1.527c18.883,4.708,38.173,3.948,57.359,4.443 c35.199,0.907,32.171,12.519,73.494,11.075c22.593-0.79,69.148,11.387,91.57,10.609c2.371-0.083,5.857-0.693,6.047,2.823 c0.195,3.591-3.114,3.218-5.638,3.225C5075.195,1888.835,5034.991,1868.907,5029.113,1889.477z"/> <path d="M1273.244,505.235c-1.603,4.791-4.489,4.471-8.427,2.61c-15.862-7.495-33.188-10.489-49.781-15.752 c-15.334-4.864-32.046,1.101-42.329,14.139c-5.67,7.188-13.309,9.194-21.472,6.385c-21.956-7.554-2.463-22.368-21.021-30.15 c-5.42-2.273-10.853-3.856-16.855-3.704c-14.884,0.377-29.818-0.775-44.609,2.065c-1.798,0.345-11.955,1.517-11.657-4.139 c0.102-1.944,1.834-1.896,3.168-2.191c25.506-5.634,50.658-8.413,75.365,4.22c14.849,7.593,30.654,10.242,47.406,5.189 c18.13-5.468,35.177,1.527,52.024,6.815c13.085,4.107,25.677,9.784,38.506,14.775 C1273.579,505.509,1273.244,505.235,1273.244,505.235z"/> <path d="M1649.202,871.807c-0.211,2.234,0.111,3.971-1.519,4.524c-1.674,0.568-2.497-0.805-3.266-2.111 c-32.908-55.811-39.383-82.684-56.943-69.82c-13.807,10.115-26.726,5.153-30.606-11.056c-1.491-6.232-4.597-5.892-9.284-5.979 c-22.003-0.412-39.091,12.215-57.482,21.324c-15.096,7.477-20.508,13.844-22.959,10.459c-1.109-1.532,0.217-2.509,1.469-3.275 c20.376-12.463,39.039-28.903,62.393-34.862c47.149-12.03,53.14,7.782,68.039,13.36c15.3,5.728,17.409,13.877,48.707,73.108 C1648.575,869.039,1648.895,870.863,1649.202,871.807z"/> <path d="M4168.404,1797.161c-18.667-0.477-51.046,10.885-57.649,13.752c-4.51,1.958-8.437,4.251-1.973,8.819 c4.284,3.028,3.358,5.965-1.341,6.031c-20.598,0.289-25.215,26.302-47.332,8.625c-1.389-1.11-1.329-2.013-1.284-3.552 c0.425-14.366-9.034-25.89-23.389-30.262c-17.381-5.293-34.56-11.261-51.741-17.187c-2.306-0.795-6.813-1.099-5.302-5.214 c1.112-3.03,4.442-1.413,6.777-0.745c18.75,5.372,38.208,8.209,56.38,15.632c11.869,4.848,21.901,16.403,35.936,19.955 c15.353,3.885,14.608-3.298,26.452-8.26c18.341-7.683,37.961-9.257,57.375-11.71 C4163.439,1792.779,4166.531,1791.757,4168.404,1797.161z"/> <path d="M3373.454,641.01c-3.581-0.819-6.126,1.758-9.139,2.796c-11.105,3.825-23.781-4.805-22.053-16.179 c1.389-9.14-3.552-12.66-9.801-15.891c-13.366-6.912-27.489-5.02-41.644-3.268c-6.007,0.743-11.878,3.982-18.142,1.522 c-2.054-0.807-4.32-1.979-4.453-4.31c-0.174-3.049,2.999-2.547,4.772-3.167c17.579-6.15,35.269-8.299,53.297-1.553 c17.838,6.674,22.781,25.137,56.113,18.306c21.448-4.396,43.468,7.797,70.847,25.881c2.364,1.562,7.436,2.631,4.805,6.728 c-2.317,3.609-6.735,4.184-10.509,0.998c-9.759-8.237-20.835-14.248-32.198-19.943c-10.361-5.193-21.127-4.516-31.997-3.624 c-7.166,0.588-9.381,5.777-10.211,11.966L3373.454,641.01z"/> <path d="M1829.288,793.952c5.825,1.874,14.743,3.845,20.916,9.987c9.028,8.982,19.912,11.002,31.634,11.597 c15.277,0.776,26.184-7.807,58.098,17.527c24.898,19.766,27.289,21.639,23.313,25.333c-3.216,2.988-6.009,0.399-8.211-2.239 c-8.447-10.121-20.019-16.678-29.324-25.862c-10.636-10.496-23.253-10.254-36.379-5.334c-2.455,0.92-3.881,1.902-4.586,5.055 c-3.832,17.14-30.892,14.526-32.211-4.15c-1.189-16.852-11.501-25.501-27.932-21.598c-12.969,3.081-26.629,3.8-38.783,10.048 c-4.069,2.092-7.253,0.819-9.162-2.874c-2.712-5.249,2.798-5.001,5.056-6.168C1795.783,798.002,1810.886,794.462,1829.288,793.952z "/> <path d="M701.341,599.522c42.213,28.563,47.09,11.026,63.469,30.972c11.428,13.917,18.701,30.266,26.955,46.033 c1.247,2.383,3.441,5.629-0.7,7.335c-3.293,1.356-4.447-1.904-5.395-4.056c-6.306-14.319-16.491-26.469-22.429-41.045 c-4.885-11.99-24.64-15.592-33.652-6.721c-5.684,5.596-12.691,5.329-19.265,3.024c-8.078-2.832-9.71-10.589-9.913-17.904 c-0.437-15.705-10.119-22.546-24.732-16.439c-13.577,5.674-28.81,4.009-42.373,9.914c-1.962,0.854-6.182,0.147-7.23-3.382 c-1.256-4.232,2.697-4.751,5.104-5.59C652.909,594.097,674.51,581.367,701.341,599.522z"/> <path d="M3774.336,787.894c-1.294,3.899-3.87,1.668-6.031,0.928c-13.223-4.526-25.032-11.513-35.868-20.314 c-29.511-23.971-30.773-24.443-37.528-25.257c-1.727-0.208-4.36,0.275-3.275,2.698c3.818,8.528-2.672,6.956-7.001,7.481 c-15.132,1.836-22.38-2.183-26.036-16.185c-3.9-14.94-32.184-8.815-85.054-20.012c-13.208-2.797-10.295-11.923-5.699-8.949 c12.891,8.345,28.059,7.1,42.093,8.371c39.113,3.543,92.357,13.868,121.889,39.72c11.939,10.452,27.052,16.898,39.043,27.599 C3772.165,785.133,3774.192,785.482,3774.336,787.894z"/> <path d="M994.664,688.155c-20.367-27.328-24.316-33.825-35.192-42.749c-22.515-18.475-27.481,13.661-46.024,6.354 c-23.675-9.33-4.694-26.446-25.837-27.362c-9.529-0.413-18.374,0.531-27.216,5.547c-13.55,7.687-29.636,9.96-42.959,18.549 c-4.811,3.101-9.644-1.583-2.723-5.39c49.843-27.414,62.533-29.803,83.161-23.55c40.979,12.42,56.113,9.379,66.521,21.154 c10.344,11.703,20.565,23.526,28.047,37.373C993.74,680.483,995.456,682.921,994.664,688.155z"/> <path d="M447.081,573.606c14.592,6.824,26.675,23.163,43.074,33.925c6.204,4.072,7.876,12.024,11.357,18.372 c6.67,12.162,20.212,15.434,32.314,8.355c11.508-6.733,24.185-9.617,37.45-10.354c50.137-2.783,50.674-4.483,51.149-1.141 c0.541,3.807,0.808,4.093-50.962,6.83c-4.456,0.236-8.958,0.234-12.503,2.973c-10.557,8.158-23.789,11.87-33.082,22.587 c-12.249,14.126-33.269,1.03-31.201-9.194c3.472-17.166-7.647-27.58-17.617-38.623 C466.153,595.254,455.427,583.009,447.081,573.606z"/> <path d="M4656.175,1704.456c-44.854,13.941-37.518,1.333-104.793,27.619c-3.013,1.177-5.048,3.332-5.619,7.279 c-1.166,8.057-10.026,16.115-16.457,15.974c-5.784-0.127-16.661-9.21-17.31-16.274c-1.996-21.728-55.665-35.821-94.054-57.786 c-4.835-2.768-1.48-7.063,1.533-4.718c13.916,10.833,55.696,22.151,92.016,46.285c11.335,7.532,25.712,5.658,37.879,0.7 c26.968-10.989,55.479-13.798,83.767-17.884C4639.845,1704.682,4646.533,1701.727,4656.175,1704.456z"/> <path d="M4816.965,2155.156c42.388,8.86,45.364,13.461,79.953,45.821c1.678,1.57,4.531,3.644,1.961,6.285 c-3.988,4.099-21.056-17.057-53.84-34.795c-21.02-11.372-21.78,26.338-45.375,3.016c-12.513-12.369-29.209,17.492-44.907,32.3 c-13.91,13.124-14.643,15.492-17.08,13.301c-3.271-2.942,20.795-34.084,41.027-50.187 C4789.843,2162.032,4804.085,2158.926,4816.965,2155.156z"/> <path d="M0,1057.858c19.694,4.401,39.138,6.958,53.763,18.911c15.346,12.542,31.147,10.72,45.768,4.273 c32.919-14.515,68.235-20.046,102.185-30.519c0.849-0.262,1.975,0.372,3.304,1.721c-11.054,2.783-21.55,6.964-32.287,10.448 c-57.105,18.531-47.772,12.413-72.184,30.741c-5.299,3.978,5.57,12.077-11.474,20.422c-6.617,3.24-13.064,3.867-19.09-2.014 c-4.677-4.565-10.016-8.013-8.322-16.225c2.351-11.392-37.868-26.024-49.002-29.611C8.374,1064.623,3.411,1064.138,0,1057.858z"/> <path d="M5295.226,2400.091c-27.662,8.868-98.548,9.77-105.291,42.09c-3.73,17.885-28.151,15.667-29.665,0.682 c-2.322-22.987-24.525-27.082-95.999-48.732c-4.524-1.371-3.971-5.001,0.727-5.674c1.001-0.143,54.164,15.247,69.409,21.674 c18.597,7.842,32.877,29.619,64.403,9.23c20.423-13.208,65.198-17.865,89.341-21.243 C5290.185,2397.834,5292.333,2397.274,5295.226,2400.091z"/> <path d="M304.118,1956.562c51.612,48.018,51.46,42.467,49.39,45.995c-1.839,3.134-4.322,1.162-6.622,0.16 c-11.184-4.874-20.302-12.425-28.528-21.309c-11.191-12.086-33.994-35.865-45.032-23.637c-8.182,9.063-17.851,8.905-23.546-1.033 c-13.429-23.431-40.293,12.736-82.099,22.617c-1.683,0.398-3.98,1.121-4.611-1.13c-0.596-2.127,1.631-2.947,3.266-3.516 c18.917-6.582,36.621-15.508,53.506-26.314C241.887,1934.284,282.169,1936.142,304.118,1956.562z"/> <path d="M3226.709,2530.002c7.16-2.002,58.503,20.903,62.675,22.778c13.182,5.924,24.757,25.919,54.344,12.439 c16.389-7.468,34.472-7.624,51.725-11.376c6.609-1.438,13.392-2.891,22.152-2.102c-8.146,5.063-15.672,6.254-23.251,7.852 c-14.079,2.969-58.3,8.777-60.216,23.716c-0.528,4.115-3.845,6.79-7.104,9.283c-10.079,7.711-17.027,6.932-20.95-5.107 c-8.098-24.853-27.6-30.176-74.024-52.343C3229.9,2534.109,3226.96,2533.712,3226.709,2530.002z"/> <path d="M5119.947,1867.267c60.363-18.041,124.951-19.315,160.391,1.541c16.823,9.9,51.454,23.06,49.178,27.344 c-3.378,6.355-7.147-5.272-61.35-26.327c-7.994-3.105-16.926-3.759-25.385-5.729c-3.658-0.851-3.302,1.675-3.541,3.695 c-1.857,15.74-25.789,20.243-30.855,1.586c-4.849-17.855-36.711-5.627-69.722-1.873 C5132.377,1868.22,5126.2,1869.518,5119.947,1867.267z"/> <path d="M3373.143,641.272c14.293,6.558,29.767,9.06,44.733,13.339c11.643,3.329,23.883,1.757,35.257,5.729 c23.912,8.351,49.76,9.867,73.156,19.209c18.94,7.563,38.33,12.84,57.789,18.335c11.459,3.236,16.875-0.834,16.703,4.051 c-0.137,3.912-4.163,3.472-6.885,3.143c-50.394-6.107-84.47-32.848-95.178-19.013c-11.12,14.369-26.695,3.232-26.643-7.82 c0.068-14.338-60.834-13.796-91.9-28.572c-4.069-1.935-6.528-4.191-6.704-8.678C3373.454,641.01,3373.143,641.272,3373.143,641.272 z"/> <path d="M4642.459,922.211c21.986,9.159,46.52,11.867,61.264,33.956c4.304,6.447,12.712,5.956,18.888,2.46 c27.458-15.542,55.787,2.148,69.726,1.401c6.653-0.357,5.268,9.136-1.269,7.182c-24.464-7.312-43.807-18.571-60.625,0.812 c-1.462,1.686-3.306,3.253-3.042,5.541c0.518,4.497,4.172,9.009-4.217,11.161c-8.456,2.169-15.963,4.653-23.4-2.161 c-21.508-19.706,8.686-31.778-50.299-52.563C4646.183,928.838,4642.092,928.607,4642.459,922.211z"/> <path d="M2974.119,726.51c-23.198-39.914-27.781-54.9-44.744-50.162c-2.347,0.656-4.281,1.329-6.15,3.683 c-13.104,16.5-35.4,3.807-31.535-11.477c1.855-7.336-12.887-11.138-21.882-5.324c-11.535,7.456-24.668,12.793-33.863,23.636 c-3.036,3.58-6.666,6.621-9.731,2.724c-1.646-2.092-1.006-3.859,0.981-5.555c10.752-9.172,20.1-19.903,33.12-26.486 c9.714-4.911,18.852-4.823,28.253-0.577c12.721,5.745,26.459,7.572,39.929,9.582c12.99,1.938,21.978,7.539,28.587,18.774 C2964.664,698.214,2969.337,712.227,2974.119,726.51z"/> <path d="M184.891,1932.511c-17.012,2.241-25.011-0.827-70.008-13.354c-26.44-7.361-15.573,17.077-39.621,13.412 c-18.613-2.837-1.373-15.066-21.23-15.8c-15.204-0.562-28.433,3.076-48.412,6.74c-2.161,0.397-4.523,0.861-5.119-2.194 c-0.531-2.721,1.242-4.298,3.555-4.493c17.998-1.522,35.26-9.134,53.842-6.071c14.38,2.37,28.948,2.385,43.474,1.719 c11.716-0.537,23.184-0.382,34.276,4.401c8.074,3.482,16.963,3.753,25.57,5.093 C169.142,1923.196,176.643,1925.639,184.891,1932.511z"/> <path d="M1285.435,921.579c-17.091-29.048-21.504-58.002-40.625-42.186c-14.381,11.896-28.709,0.78-28.521-9.971 c0.116-6.616-3.182-7.858-8.743-8.033c-9.283-0.292-17.967,1.042-26.232,5.708c-10.433,5.891-20.63,12.088-30.259,19.221 c-2.019,1.495-4.105,3.103-6.422,3.916c-3.349,1.176-7.375-1.713-2.437-4.731c33.225-20.3,39.091-32.762,64.169-30.917 c17.484,1.287,51.961,12.169,56.506,16.862C1276.521,885.543,1281.064,903.686,1285.435,921.579z"/> <path d="M569.188,1525.334c9.206-11.704,34.419-30.153,52.01-27.157c13.41,2.284,55.323-10.286,88.747,41.849 c2.616,4.08,10.407,8.143,5.623,13.035c-2.066,2.113-5.626-6.784-9.051-10.14c-14.326-14.037-40.162-43.625-50.282-29.927 c-9.731,13.172-21.225,12.244-29.364-1.261c-4.436-7.36-12.445-7.872-20.15-6.887c-10.621,1.358-17.927,9.127-26.481,14.469 C576.697,1521.529,573.81,1524.888,569.188,1525.334z"/> <path d="M5410.392,2750.063c-4.291,11.378-20.884,8.904-32.796,6.319c-28.483-6.183-26.249,21.067-44.899,13.852 c-19.23-7.44,6.463-23.577-25.633-42.471c-9.861-5.806-17.773-13.752-26.593-20.69c-2.124-1.671-4.223-3.782-2.16-6.346 c2.607-3.24,4.7,0.3,6.104,1.679c11.748,11.531,28.516,16.191,39.339,28.93c13.217,15.558,21.44,23.3,35.332,19.856 c9.246-2.292,19.541-0.765,29.336-0.283C5395.488,2751.257,5402.449,2753.819,5410.392,2750.063z"/> <path d="M3323.878,719.116c-3.138,0.801-5.624-0.236-8.197-3.433c3.944-0.531,6.187,1.028,8.008,3.657 C3323.691,719.338,3323.878,719.116,3323.878,719.116z"/> </g> </svg>