<?xml version="1.0" encoding="utf-8"?>
<svg version="1.1"
	 id="svg2" xmlns:cc="https://creativecommons.org/ns#" xmlns:dc="https://purl.org/dc/elements/1.1/" xmlns:rdf="https://www.w3.org/1999/02/22-rdf-syntax-ns#" xmlns:svg="https://www.w3.org/2000/svg"
	 xmlns="https://www.w3.org/2000/svg" xmlns:xlink="https://www.w3.org/1999/xlink" x="0px" y="0px" viewBox="0 0 6000 2148.537"
	 enable-background="new 0 0 6000 2148.537" xml:space="preserve">
<g>
	<path d="M5992.021,861.277c-23.332,19.633-30.809,1.445-87.9,19.592c-38.829,12.342-35.891,7.561-78.835,24.151
		c-17.493,6.758-51.077,31.201-58.073,42.266c-10.837,17.138-10.276,19.006-18.91,19.006c-15.67,0-15.845,17.995-45.274,18.431
		c-56.701,0.841-103.641,54.047-121.031,62.984c-19.261,9.898-38.493,36.71-52.431,39.222c-10.104,1.82-9.145,4.078-17.713,7.924
		c-8.352,3.748,2.435,0.457,0.533,5.415c-3.128,8.152,25.182-10.477,45.107-16.621c34.2-10.546,36.522-20.464,64.529-31.248
		c8.065-3.106,17.787-8.458,21.605-11.895c32.107-28.9,82.205-53.879,89.772-44.76c6.44,7.76,27.968,13.148,41.542,10.396
		c11.555-2.342,28.977-5.535,29.636-7.343c2.638-7.236,4.091-6.869,23.849,6.027c29.685,19.374,33.97,16.947,8.119-4.599
		c-19.075-15.898-31.7-28.628-35.356-35.648c-8.121-15.593,56.196-55.041,101.96-62.537c12.362-2.025,15.274-8.544,46.759-16.405
		C6007.272,871.313,6005.848,849.641,5992.021,861.277z"/>
	<path d="M3714.885,1366.031c-4.97-1.657,1.808-7.882-10.536-1.774c-9.537,4.718-24.549,4.807-41.993,0.248
		c-14.483-3.785-39.536-5.468-41.204-2.768c-2.177,3.523-81.246,2.481-91.506,8.823c-2.985,1.843-0.554-5.948-3.272-1.672
		c-0.823,1.294-4.948,3.796-9.166,5.558c-11.476,4.795-15.753,10.702-19.207,9.377c-3.521-1.351-27.95,11.782-32.372,17.403
		c-3.951,5.023-13.32,8.446-15.232,5.566c-7.564-11.39-23.34,9.287-31.712,9.287c-2.555,0-6.342,1.284-8.416,2.853
		c-2.488,1.882-8.563,2.874-17.857,2.914c-21.3,0.093-9.076,4.336-22.338,3.287c-14.598-1.155-23.771,11.658-36.729,14.895
		c-2.833,0.708-9.987,5.226-15.898,10.041c-18.635,15.179-103.098,59.226-106.698,60.241c-9.634,2.717-14.953,5.396-13.947,7.026
		c1.684,2.725,7.43,2.018,16.614-2.044c12.475-5.516,16.732-4.5,22.915-7.81c6.008-3.214,21.525-2.863,29.454-6.963
		c3.018-1.561,6.648-2.838,8.067-2.838c1.419,0,8.751-2.958,16.294-6.573c24.337-11.662,36.758-8.762,50.066-19.436
		c12.349-9.903,30.917-20.622,35.724-20.622c2.384,0,4.333-0.768,4.333-1.707c0-3.458,31.166-12.967,32.964-10.058
		c0.708,1.147,2.224,1.16,4.003,0.035c5.027-3.179,13.62-2.01,19.993,2.72c14.08,10.449,53.858,11.661,65.352,1.99l5.408-4.551
		c48.214,34.426,51.569,27.54,17.028-0.337c-27.123-21.889-28.128-24.769-12.207-35.005c16.529-10.626,49.441-22.922,53.93-20.148
		c1.002,0.62,7.598-0.213,14.657-1.85c19.104-4.43,34.666-1.62,48.376-5.745c6.563-1.975,14.953-2.48,29.273-1.762
		C3677.933,1375.579,3722.798,1368.669,3714.885,1366.031z"/>
	<path d="M2646.049,1113.704c-3.171,3.821-24.437,11.207-28.158,9.779c-4.928-1.891,0.035,3.099-9.527,3.099
		c-8.837,0-28.546,5.343-34.409,9.328c-21.212,14.419-53.498,8.92-59.668,15.091c-1.654,1.654-4.149,2.568-5.545,2.032
		c-3-1.152,0.391-0.182-18.695,9.181c-37.963,18.625-53.732,57.028-73.892,50c-20.926-7.296-28.994,20.464-46.075,15.997
		c-5.787-1.513-1.432,2.217-9.094,4.141c-10.475,2.629-35.206,24.919-45.952,41.417c-3.319,5.095-9.326,10.476-15.73,14.09
		c-16.08,9.075-35.187,33.002-49.304,39.244c-19.677,8.699-31.879,22.474-3.311,8.591c21.852-10.618,38.502-12.451,64.051-26.595
		c45.064-24.947,49.932-22.945,62.084-38.588c19.323-24.875,31.552-30.04,51.829-21.891c13.543,5.443,77.243,1.602,82.627-4.983
		c3.405-4.165,5.729,0.691,6.818-2.576c0.726-2.179,26.816,7.142,26.837,9.588c0.006,0.688,3.503,1.383,7.772,1.542
		c13.276,0.499,9.252-4.171-14.583-16.923c-39.571-21.17-44.874-30.533-26.481-46.76c14.472-12.768,48.998-27.462,76.36-32.498
		c4.993-0.919,12.815-4.419,17.383-7.779c4.568-3.359,9.663-6.127,11.323-6.151c9.924-0.14,38.961-21.413,38.961-28.542
		C2651.671,1110.265,2648.834,1110.348,2646.049,1113.704z"/>
	<path d="M4337.298,2053.219c-16.081,15.11-67.175-12.662-67.175-3.925c0,2.463-17.748-3.636-32.058-4.884
		c-5.343-0.466-10.006-1.704-10.362-2.751c-0.807-2.37-13.925-2.544-13.925-0.185c0,0.946-8.961,1.443-19.915,1.104
		c-15.963-0.493-20.879,0.018-24.772,2.579c-11.333,7.454-29.142,15.075-29.142,12.468c0.004-3.874-92.57,2.778-102.16,7.801
		c-23.437,12.276-31.875,17.695-44.212,28.388c-4.098,3.553-8.688,5.984-10.2,5.404c-3.945-1.514-0.32,1.462-8.092,4.237
		c-7.719,2.756-29.432,20.554-38.373,25.151c-9.178,4.719-20.401,14.18-20.401,17.199c0,1.513,0.218,2.75,0.485,2.73
		c1.154-0.051,18.163-5.941,19.677-4.427c0.599,0.599,3.151-0.263,5.671-1.914c5.912-3.874,22.953-8.873,26.287-7.712
		c3.945,1.373,20.27-3.744,24.505-7.682c7.928-7.371,10.025-0.619,18.136-7.959c5.596-5.065,10.69-3.571,15.186-8.066
		c4.356-4.357,16.343-2.124,16.343-4.808c0-0.983,2.549-2.348,5.664-3.032c3.115-0.684,8.311-3.774,11.547-6.866
		c36.974-35.335,44.912,5.639,64.959,6.008c41.857,0.764,46.799,8.08,58.393-0.762c8.258-6.298,12.388-5.425,27.016,5.708
		c20.734,15.781,20.235,10.955-1.459-14.122c-20.09-23.221-19.282-27.889,4.827-27.889c3.222,0,5.859-0.874,5.859-1.943
		c0-3.214,43.156-2.338,58.672,1.191c7.58,1.724,18.025,2.727,23.213,2.228c6.12-0.588,9.442-0.154,9.462,1.237
		c0.021,1.561,0.418,1.562,1.457,0.002c2.623-3.935,26.358,0.843,30.673-12.75
		C4344.959,2049.072,4342.506,2048.326,4337.298,2053.219z"/>
	<path d="M5659.922,1511.805c-13.152,9.655-25.896,11.439-55.473,7.767c-38.231-4.746-26.587,1.937-74.871,1.697
		c-38.919-0.196-62.554,5.337-73.244,17.15c-1.965,2.172-5.165,3.948-7.109,3.948c-9.312,0-35.619,23-56.227,17.45
		c-12.698-3.419-39.015,6.583-30.953,11.764c5.266,3.384-1.809,5.695-17.527,5.729c-40.326,0.082-51.708,35.015-83.039,49.398
		c-17.607,8.083-36.704,25.207-52.403,33.528c-13.506,7.158-9.318,8.784-18.105,13.327c-8.081,4.179-5.666,8.986-4.274,8.313
		c48.151-23.33,56.44-14.953,98.604-35.468c39.929-19.429,38.985-10.993,53.907-26.518c19.226-20.005,49.978-35.066,57.569-28.196
		c9.873,8.934,69.885,15.293,77.689,8.232c4.254-3.849,14.638,0.849,26.688,12.075c4.764,4.438,16.314,10.684,17.523,9.476
		c6.336-6.336-52.666-44.271-47.084-58.816c1.508-3.932,27.374-16.408,34.018-16.408c3.144,0,6.018-0.907,6.387-2.016
		c1.044-3.133,33.486-7.681,55.025-7.712c29.997-0.044,30.29-5.826,51.311-5.826c18.762-0.016,48.75-10.264,48.75-16.661
		c0-1.342,0.607-4.022,1.349-5.956C5669.374,1505.632,5666.795,1506.759,5659.922,1511.805z"/>
	<path d="M4738.853,1804.877c-31.272,29.335-122.932,2.505-177.73,28.782c-9.08,4.354-18.853,7.916-21.718,7.916
		c-12.243,0-23.338,21.139-35.902,13.292c-6.672-4.166-14.04,6.328-35.201,13.868c-15.864,5.652-26.935,7.813-40.022,7.813
		c-18.815,0-46.059,10.135-62.914,23.406c-10.298,8.107-70.299,25.104-92.328,34.951c-6.024,2.693-14.935,1.903-16.041,5.274
		c-2.135,6.501,21.988-2.462,53.928-4.198c38.16-2.073,51.642-16.647,72.859-17.125c18.454-0.413,39.49-20.936,47.973-20.936
		c1.933,0,3.515-0.789,3.515-1.753c0-2.348,11.591-6.289,14.041-4.775c1.065,0.659,2.666,0.018,3.556-1.422
		c2.723-4.407,21.262-0.396,21.262-3.708c0-5.078,11.597-1.763,16.551,4.733c9.863,12.932,45.149,19.375,62.63,11.438
		c15.516-7.046,16.55-5.584,29.033,2.183c38.308,23.84,40.137,19.156,3.97-10.168c-31.767-25.756-31.903-26.521-6.782-38.126
		c56.757-26.221,73.817-11.607,110.672-23.7c8.241-2.704,16.547-4.722,18.458-4.484c14.401,1.794,37.476-18.613,37.476-25.739
		C4746.139,1798.325,4745.666,1798.486,4738.853,1804.877z"/>
	<path d="M2223.258,967.316c45.358,0.004,34.812-5.509,61.694-8.858c23.814-2.966,38.55-30.978,20.984-18.471
		c-10.944,7.793-20.901,9.092-54.226,7.078c-28.18-1.704-19.338,2.973-67.498,3.402c-52.486,0.47-20.422,4.139-57.62,8.045
		c-7.381,0.775-18.938,6.37-18.938,9.169c0,0.838-1.1,1.524-2.444,1.524c-1.344,0-6.808,2.327-12.143,5.171
		c-8.083,4.31-12.933,5.327-29.12,6.112c-35.612,1.725-10.474,7.485-53.438,9.007c-36.937,1.309-60.135,35.68-81.884,43.763
		c-14.937,5.551-19.517,11.139-35.329,20.384c-15.066,8.809-10.176,15.834-16.917,14.071c-4.877-1.276-5.536,1.363-17.017,9.161
		c-27.552,18.714,13.63,2.353,19.534,3.303c2.602,0.418,42.599-10.065,59.368-18.479c30.665-15.385,39.889-9.729,58.706-27.15
		c24.7-22.868,50.432-31.707,64.467-22.145c21.728,14.804,63.706,11.405,63.706,19.599c0,1.368,0.809,1.286,2.331-0.236
		c3.507-3.506,12.514-1.207,13.68-4.707c0.469-1.406,5.095,1.643,11.333,7.468c29.987,28.003,36.85,26.364,14.399-3.439
		C2128.461,980.083,2139.754,967.316,2223.258,967.316z"/>
	<path d="M5567.875,1768.791c-1.135,0.701-2.852,3.351-3.817,5.889c-6.291,16.548-120.648,26.39-148.572,68.717
		c-5.82,8.824-11.546,6.862-20.007,16.769c-10.307,12.067-19.378,11.304-46.062-3.875c-43.303-24.633-68.797-28.178-148.148-20.599
		c-23.737,2.267-40.262,5.886-26.876,5.886c6.48,0-4.233,4.609,24.448-0.387c34.721-6.048,69.171-6.826,80.494-1.817
		c15.551,6.879,19.989,1.397,32.765,14.258c6.049,6.09,18.859-0.845,18.859,3.082c0,1.119,3.06,3.924,6.8,6.236
		c7.675,4.744,8.843,7.953,2.643,7.263c-5.739-0.639-6.577,4.394-2.993,4.394c3.605,0,16.729,14.939,26.758,25.479
		c9.422,9.9,59.079,16.796,67.046,9.311l4.335-4.072c6.058,4.114,22.578,15.611,27.984,17.782
		c14.51,5.829,12.103,1.067-10.984-21.719c-28.105-27.741-28.055-31.799,0.723-58.443c18.077-16.736,65.112-41.881,78.78-42.117
		c8.094-0.138,13.807-9.41,20.486-5.836c3.652,1.955,5.006-0.182,4.031-6.36c-0.126-0.802,1.928-1.457,4.566-1.457
		c7.6,0,0.656-3.232,5.778-8.354C5570.31,1775.422,5571.14,1766.772,5567.875,1768.791z"/>
	<path d="M5227.669,951.843c47.671-18.79,47.136-32.995,80.606-50.657c32.301-17.045,55.776-55.249,106.791-71.78
		c17.063-5.53,26.032,14.837,63.554,4.766c17.093-4.588,21.922-1.243,26.68-6.8c4.421-5.164,4.425-5.163,16.385,4.579
		c12.807,10.432,32.691,23.287,33.999,21.979c5.626-5.626-41.358-37.368-53.219-56.571c-2.674-4.331-6.613-9.267-8.753-10.969
		c-14.396-11.452,38.939-52.411,92.214-70.818c29.942-10.345,13.181-13.281,53.795-23.584
		c47.584-12.071,85.761-44.688,43.034-25.935c-23.643,10.377-48.392,7.17-79.536,17.391c-41.649,13.669-62.075,10.185-93.543,32.981
		c-15.913,11.527-11.387-0.831-62.531,48.358c-3.954,3.803-8.187,9.323-9.406,12.267c-2.888,6.972-14.195,9.338-22.962,4.804
		c-17.068-8.827-13.951,8.197-30.491,12.764c-8.295,2.29-8.693,6.61-0.756,8.198c11.666,2.333,14.584,9.387,4.205,10.164
		c-24.436,1.83-91.317,41.823-108.042,64.606c-9.996,13.617-46.791,45.127-50.787,52.857c-1.524,2.947-5.785,7.221-9.47,9.498
		c-9.991,6.175-9.794,12.484-22.073,21.379c-4.531,3.282-8.238,6.836-8.238,7.898
		C5189.125,977.757,5211.756,958.115,5227.669,951.843z"/>
	<path d="M570.783,583.129c-14.65-22.524-14.672-23.941-0.466-30.268c54.41-24.235,157.862-2.542,157.862,8.364
		c0,1.051,1.911,1.91,4.246,1.91c8.333,0,11.983,11.251,14.023,4.586c1.679,0.538,3.302,1.205,4.874,1.989
		c5.709,7.276,6.019-3.893-4.815-4.027c0,0-4.905-2.089-15.854-9.435c-8.162-5.476-19.433-10.754-29.676-13.896
		c-41.122-12.617,8.755-1.558-55.931-15.089c-33.998-7.112-100.2,1.319-116.393,14.823c-3.237,2.7-39.455,7.485-39.455,5.214
		c0-4.681,58.409-45.875,76.156-53.71c10.061-4.442,48.191-5.725,48.191-1.621c0,5.158-9.88,2.111-1.656,5.767
		c2.829,1.258,9.907,6.791,15.728,12.297c23.112,21.858,70.058,19.574,74.7-3.634c1.324-6.62,1.542-6.629,14.495-0.599
		c19.851,9.241,19.65,3.972-0.405-10.615c-17.989-13.084-19.182-15.667-11.639-25.192c30.141-38.055,98.027-48.672,128.567-20.107
		c6.46,6.042,9.475,7.85,9.475,5.682c0-13.2,18.219,25.295,12.982-2.103c24.841,20.903,11.014,2.809,22.423,2.809
		c4.962,0-0.036-6.767-6.517-8.824c-4.581-1.454-4.73-4.697-0.229-5.019c4.065-0.29-7.037-1.617-31.572-8.435
		c-38.837-10.792-57.136-12.213-89.308-6.939c-43.186,7.081-47.679,9.188-71.079,33.329c-31.991,33.005-21.699,15.245-33.959,23.832
		c-3.264,2.286-5.709,2.279-16.461-0.045c-51.081-11.039-105.068,0.028-119.489,24.493c-4.94,8.381-10.361,11.68-36.915,38.365
		l-20.401-0.603c-27.211-0.805-68.548,11.859-87.067,26.673c-17.552,14.04-37.842,15.464-59.624,32.659
		c-4.296,3.391-15.529,9.104-32.544,16.55c-36.501,15.973,25.613-2.154,47.116-5.887c30.042-5.216,40.985-12.895,79.252-24.213
		c6.722-1.988,15.644-6.325,19.827-9.638c8.969-7.104,28.726-17.434,33.41-17.469c4.316-0.032,6.466,3.63,3.734,6.362
		c-2.208,2.208-5.112,8.904,4.731-1.231c10.479-10.789,17.876-10.075,25.681,2.482c14.332,23.054,56.241,24.744,64.833,14.39
		c3.274-3.945,4.295-3.428,15.997,8.088C586.279,613.544,587.507,608.842,570.783,583.129z"/>
	<path d="M358.015,197.762c13.843-3.664,22.371-6.971,24.286-9.417c18.448-23.564,59.925-29.944,81.347-12.513
		c16.405,13.35,50.396,15.029,69.236,3.421c13.666-8.42,18.368-9.435,19.781-16.502c1.403-7.017,0.383-7.071,20.171,1.079
		c29.742,12.249,30.879,6.879,2.126-10.035c-34.179-20.105-34.631-21.443-14.034-41.493c20.641-20.094,67.756-43.341,96.606-47.668
		c11.095-1.664,11.911-4.928,30.261-24.258c13.604-14.33,17.619-38.272,6.765-40.344c-3.903-0.745-16.897,11.797-16.897,16.309
		c0,1.527-1.69,2.776-3.755,2.776c-6.104,0-4.077,8.631-9.555,6.892c-4.038-1.281-28.709,7.461-34.091,12.08
		c-7.577,6.503-8.094,9.085-27.574,12.954c-19.055,3.784-38.235,10.592-52.742,18.72c-22.304,12.496-16.399,1.888-130.691-28.305
		c-71.392-18.859-74.16-12.018-78.31-20.359c-5.322-10.696-25.696-12.387-33.084-2.745c-3.157,4.121-5.107,4.649-17.145,4.649
		c-22.288,0-60.563,13.612-71.087,13.612c-8.062,0.018-13.185,5.792-23.547,5.864c-26.19,0.176-32.359,12.868-45.637,18.416
		c-12.285,5.133-40.368,33.43-59.254,37.568c-11.954,2.619-33.538,12.178-42.064,18.629c-22.199,16.796-54.511,3.396-48.365,19.413
		c1.577,4.109,8.596,3.886,25.55-0.813c31.425-8.709,55.769,3.364,107.332-23.256c15.724-8.118,42.081-12.81,46.032-17.351
		c9.756-11.211,17.669-28.325,47.084-40.28c11.91-4.84,14.75-4.187,23.792,5.478c21.163,22.62,78.602,19.255,89.39-5.238
		l4.509-10.235c42.47,21.504,54.825,18.382,38.373,7.912c-7.736-4.922-4.51-3.662-12.143-9.15
		c-14.331-10.303,50.986,3.768,89.645,19.312c9.232,3.712,19.858,6.749,23.615,6.749c9.706,0,33.665,9.664,38.288,9.731
		c15.904,0.236-0.53,10.672-7.384,24.27c-5.746,11.398-14.778,16.558-19.082,24.798c-3.168,6.066-19.906,15.032-28.062,15.032
		c-2.875,0-8.515,1.373-12.532,3.052c-10.529,4.399-41.233,8.995-51.458,7.703c-22.148-2.8-59.289,10.802-80.096,29.332
		c-14.141,12.593-14.89,3.305-42.922,20.212c-18.153,10.949-15.384,6.486-18.732,10.519c-3.353,4.041-15.992,6.528-17.894,9.465
		c-2.23,3.444-32.704,1.763-32.704,7.382c0,0.968,3.586,1.182,7.993,0.477c20.748-3.318-13.552,15.946,27.951-2.652
		c4.274-1.915,18.701-5.854,32.058-8.753C314.349,212.607,323.778,206.824,358.015,197.762z"/>
	<path d="M5245.051,666.739c30.653-16.238,36.372-20.409,57.734-42.101c34.903-35.442,33.778-28.124,39.703-47.902
		c10.069-33.613,23.984-45.196,39.436-60.682c39.414,4.459,67.542-6.899,73.643-13.431l5.211-5.579
		c45.843,39.468,38.623,25.154,37.304,24.339c-3.51-2.17-28.374-32.79-33.937-41.794c-6.524-10.56-12.216-15.442-18.07-15.5
		c-5.013-0.05-5.212-0.661-2.113-6.486c9.515-17.879,33.189-36.623,67.261-53.251c33.136-16.171,23.048-13.54,46.813-36.289
		c16.12-15.431,13.696-30.355,12.872-44.88c-7.592,12.197-11.201,19.023-21.857,23.581c-9.338,3.994-4.457,6.535-10.132,6.535
		c-12.397,0-35.148,23.766-46.856,25.954c-19.249,3.597-80.648,33.742-101.017,86.432c-4.808,12.438-5.236,12.914-11.172,12.44
		c-9.119-0.729-4.009,3.407-9.591,3.407c-1.88,0-8.219,4.465-14.086,9.921c-20.759,19.306-56.257,25.331-71.888,92.778
		c-1.734,7.485-4.778,13.074-10.832,19.89c-10.32,11.62-24.122,30.147-24.122,32.38c0,2.567-13.6,13.336-13.6,18.217
		c0,4.371-1.529,2.477-9.546,14.356C5218.711,680.184,5219.962,680.03,5245.051,666.739z"/>
	<path d="M970.596,184.936c-15.558,6.432-29.173,5.471-63.668-4.496c-26.725-7.722-25.105,0.874-60.428-4.855
		c-36.975-5.996-85.277-1.918-104.249,8.801c-38.765,21.904-36.267,23.193-54.711,25.472c-26.691,3.299-13.121,7.73-51.65,13.336
		c-13.03,1.896-54.243,5.616-83.912,41.982c-11.718,14.363-13.256,15.625-20.752,17.031c-23.1,4.334-54.909,40.006-65.793,40.006
		c-1.889,0-3.435,1.217-3.435,2.704c0,4.497-17.724,5.795-14.482,11.043c1.121,1.813,6.486,0.087,18.028-5.801
		c4.16-2.122,18.398-7.021,31.639-10.886c37.157-10.846,54.368-24.609,85.507-37.798c34.037-14.417,25.006-34.286,88.049-46.379
		l7.131,6.443c18.227,16.467,65.455,18.605,74.967,3.393c1.82-2.91,3.573-5.656,3.896-6.1c0.323-0.445,8.238,2.793,17.589,7.194
		c30.198,14.214,36.974,12.838,14.748-2.996c-38.759-27.612-39.825-29.772-19.604-39.702
		c28.857-14.171,93.165-19.696,141.347-12.145c34.1,5.344,56.891,4.495,59.957-2.234
		C972.593,184.955,972.557,184.125,970.596,184.936z"/>
	<path d="M947.882,676.979c-7.26-8.748-78.135-29.931-110.899-33.146c-6.946-0.681-16.589-2.184-21.43-3.34
		c-25.372-6.056-45.715,38.089-66.973,15.901c-6.091-6.358-11.54-7.264-17.331-2.883c-8.492,6.425-26.264-5.94-13.756,7.556
		c2.672,2.883,4.857,6.07,4.857,7.084c0,4.995-35.405-0.163-46.143,6.806c-35.089,22.773-42.806,55.098-63.382,60.78
		c-12.209,3.371-38.991,28.379-52.548,37.809c-2.76,1.92-5.018,4.324-5.018,5.343c0,2.689,1.139,2.437,17.353-3.846
		c25.724-9.968,32.965-7.945,62.153-23.003c34.047-17.565,56.498-20.914,56.498-28.272c0-8.94,29.598-32.401,40.877-32.401
		c2.54,0,4.572-1.521,5.191-3.886c1.138-4.35,6.392-5.364,6.392-1.234c0,22.887,59.906,25.914,70.764,26.898
		c5.665-7.104,4.224-5.297,8.625-10.816c34.55,24.075,45.416,29.713,14.832-1.795c-22.457-23.136-23.325-26.513-8.247-32.089
		c25.59-9.463,84.749-4.947,92.239,7.041c4.141,6.628,3.556,7.36,7.256,4.289c2.45-2.033,3.244-1.601,4.856,2.638
		c2.086,5.487,5.909,6.881,5.909,2.154c0-3.856,1.86-3.684,5.251,0.486c2.012,2.474,3.04,2.739,3.776,0.971
		c1.447-3.474,13.51-1.54,15.259-4.372C966.096,678.655,951.277,681.071,947.882,676.979z"/>
</g>
</svg>
